<?xml version="1.0" encoding="UTF-8" standalone="no"?>
<!-- Created with Inkscape (http://www.inkscape.org/) -->

<svg
   xmlns:dc="http://purl.org/dc/elements/1.1/"
   xmlns:cc="http://creativecommons.org/ns#"
   xmlns:rdf="http://www.w3.org/1999/02/22-rdf-syntax-ns#"
   xmlns:svg="http://www.w3.org/2000/svg"
   xmlns="http://www.w3.org/2000/svg"
   xmlns:sodipodi="http://sodipodi.sourceforge.net/DTD/sodipodi-0.dtd"
   xmlns:inkscape="http://www.inkscape.org/namespaces/inkscape"
   width="12"
   height="12"
   viewBox="0 0 12 12"
   version="1.1"
   id="svg3769"
   inkscape:version="0.92.1 r15371"
   sodipodi:docname="1 ne.svg">
  <defs
     id="defs3763" />
  <sodipodi:namedview
     id="base"
     pagecolor="#ffffff"
     bordercolor="#666666"
     borderopacity="1.0"
     inkscape:pageopacity="0.0"
     inkscape:pageshadow="2"
     inkscape:zoom="15.839192"
     inkscape:cx="4.5315882"
     inkscape:cy="8.081127"
     inkscape:document-units="px"
     inkscape:current-layer="layer1"
     showgrid="false"
     units="px"
     inkscape:window-width="1024"
     inkscape:window-height="552"
     inkscape:window-x="0"
     inkscape:window-y="0"
     inkscape:window-maximized="1" />
  <metadata
     id="metadata3766">
    <rdf:RDF>
      <cc:Work
         rdf:about="">
        <dc:format>image/svg+xml</dc:format>
        <dc:type
           rdf:resource="http://purl.org/dc/dcmitype/StillImage" />
        <dc:title></dc:title>
      </cc:Work>
    </rdf:RDF>
  </metadata>
  <g
     inkscape:label="Layer 1"
     inkscape:groupmode="layer"
     id="layer1"
     transform="translate(0,-1110.5197)">
    <path
       style="color:#000000;font-style:normal;font-variant:normal;font-weight:normal;font-stretch:normal;font-size:medium;line-height:normal;font-family:sans-serif;font-variant-ligatures:normal;font-variant-position:normal;font-variant-caps:normal;font-variant-numeric:normal;font-variant-alternates:normal;font-feature-settings:normal;text-indent:0;text-align:start;text-decoration:none;text-decoration-line:none;text-decoration-style:solid;text-decoration-color:#000000;letter-spacing:normal;word-spacing:normal;text-transform:none;writing-mode:lr-tb;direction:ltr;text-orientation:mixed;dominant-baseline:auto;baseline-shift:baseline;text-anchor:start;white-space:normal;shape-padding:0;clip-rule:nonzero;display:inline;overflow:visible;visibility:visible;opacity:1;isolation:auto;mix-blend-mode:normal;color-interpolation:sRGB;color-interpolation-filters:linearRGB;solid-color:#000000;solid-opacity:1;vector-effect:none;fill:#000000;fill-opacity:1;fill-rule:nonzero;stroke:none;stroke-width:1;stroke-linecap:butt;stroke-linejoin:miter;stroke-miterlimit:4;stroke-dasharray:none;stroke-dashoffset:0;stroke-opacity:1;color-rendering:auto;image-rendering:auto;shape-rendering:auto;text-rendering:auto;enable-background:accumulate"
       d="m 7.3377403,1110.8288 c -0.900229,-0.095 -1.872569,-0.031 -2.779297,0.09 -1.813457,0.2422 -3.3749999,0.7246 -3.3749999,0.7246 l 0.294922,0.955 c 0,0 1.4957989,-0.4583 3.2109369,-0.6875 0.85757,-0.1145 1.766421,-0.1697 2.542969,-0.088 0.776548,0.082 1.397736,0.306 1.744141,0.6524 0.81066,0.8107 1.2695307,2.2207 1.2695307,3.6465 0,1.4258 -0.4588707,2.8358 -1.2695307,3.6465 -0.796249,0.7962 -2.504714,1.4156 -4.054688,1.4824 -0.774987,0.033 -1.506739,-0.066 -2.05664,-0.291 -0.5499008,-0.2247 -0.9035098,-0.5438 -1.0624998,-1.002 -0.1262991,-0.364 -0.06875,-0.4915 0.06836,-0.6543 0.137109,-0.1627 0.433258,-0.3298 0.7832028,-0.4414 0.699889,-0.2231 1.535156,-0.2402 1.535156,-0.2402 l -0.01172,-1 c 0,0 -0.931355,0 -1.8281248,0.2871 -0.448386,0.1429 -0.9082991,0.3536 -1.2421881,0.75 -0.33388797,0.3963 -0.46241597,1.0091 -0.24804697,1.6269 0.26733597,0.7705 0.89154597,1.2993 1.62695287,1.5997 0.735408,0.3003 1.595787,0.4013 2.478516,0.3632 1.76546,-0.076 3.629382,-0.684 4.718751,-1.7734 1.0749567,-1.075 1.5624997,-2.7221 1.5624997,-4.3535 0,-1.6314 -0.487542,-3.2786 -1.5624997,-4.3535 -0.596405,-0.5964 -1.445474,-0.8446 -2.345703,-0.9395 z"
       id="path7124-2"
       inkscape:connector-curvature="0" />
  </g>
</svg>
