<?xml version="1.0" encoding="UTF-8" standalone="no"?>
<!-- Created with Inkscape (http://www.inkscape.org/) -->

<svg
   xmlns:dc="http://purl.org/dc/elements/1.1/"
   xmlns:cc="http://creativecommons.org/ns#"
   xmlns:rdf="http://www.w3.org/1999/02/22-rdf-syntax-ns#"
   xmlns:svg="http://www.w3.org/2000/svg"
   xmlns="http://www.w3.org/2000/svg"
   xmlns:sodipodi="http://sodipodi.sourceforge.net/DTD/sodipodi-0.dtd"
   xmlns:inkscape="http://www.inkscape.org/namespaces/inkscape"
   width="12"
   height="12"
   viewBox="0 0 12 12"
   version="1.1"
   id="svg3769"
   inkscape:version="0.92.1 r15371"
   sodipodi:docname="2 pa.svg">
  <defs
     id="defs3763" />
  <sodipodi:namedview
     id="base"
     pagecolor="#ffffff"
     bordercolor="#666666"
     borderopacity="1.0"
     inkscape:pageopacity="0.0"
     inkscape:pageshadow="2"
     inkscape:zoom="15.839192"
     inkscape:cx="4.5315882"
     inkscape:cy="8.081127"
     inkscape:document-units="px"
     inkscape:current-layer="layer1"
     showgrid="false"
     units="px"
     inkscape:window-width="1024"
     inkscape:window-height="552"
     inkscape:window-x="0"
     inkscape:window-y="0"
     inkscape:window-maximized="1" />
  <metadata
     id="metadata3766">
    <rdf:RDF>
      <cc:Work
         rdf:about="">
        <dc:format>image/svg+xml</dc:format>
        <dc:type
           rdf:resource="http://purl.org/dc/dcmitype/StillImage" />
        <dc:title></dc:title>
      </cc:Work>
    </rdf:RDF>
  </metadata>
  <g
     inkscape:label="Layer 1"
     inkscape:groupmode="layer"
     id="layer1"
     transform="translate(0,-1110.5197)">
    <path
       style="color:#000000;font-style:normal;font-variant:normal;font-weight:normal;font-stretch:normal;font-size:medium;line-height:normal;font-family:sans-serif;font-variant-ligatures:normal;font-variant-position:normal;font-variant-caps:normal;font-variant-numeric:normal;font-variant-alternates:normal;font-feature-settings:normal;text-indent:0;text-align:start;text-decoration:none;text-decoration-line:none;text-decoration-style:solid;text-decoration-color:#000000;letter-spacing:normal;word-spacing:normal;text-transform:none;writing-mode:lr-tb;direction:ltr;text-orientation:mixed;dominant-baseline:auto;baseline-shift:baseline;text-anchor:start;white-space:normal;shape-padding:0;clip-rule:nonzero;display:inline;overflow:visible;visibility:visible;opacity:1;isolation:auto;mix-blend-mode:normal;color-interpolation:sRGB;color-interpolation-filters:linearRGB;solid-color:#000000;solid-opacity:1;vector-effect:none;fill:#000000;fill-opacity:1;fill-rule:nonzero;stroke:none;stroke-width:1;stroke-linecap:butt;stroke-linejoin:miter;stroke-miterlimit:4;stroke-dasharray:none;stroke-dashoffset:0;stroke-opacity:1;color-rendering:auto;image-rendering:auto;shape-rendering:auto;text-rendering:auto;enable-background:accumulate"
       d="m 4.9617351,1110.8427 c -0.879417,-0.018 -1.732617,0.092 -2.458984,0.3731 -0.726367,0.281 -1.349995,0.7539 -1.62890603,1.4609 -0.240519,0.6097 -0.127362,1.2318 0.20507803,1.6309 0.33244,0.3991 0.795304,0.6092 1.248047,0.7539 0.905485,0.2893 1.855468,0.2988 1.855468,0.2988 l 0.01953,-1 c 0,0 -0.858792,-0.025 -1.570313,-0.2519 -0.355759,-0.1137 -0.652274,-0.2843 -0.783201,-0.4414 -0.130927,-0.1572 -0.183811,-0.2661 -0.04297,-0.6231 0.147415,-0.3737 0.499653,-0.6783 1.058594,-0.8945 0.558941,-0.2163 1.299826,-0.3229 2.078125,-0.3067 1.556598,0.032 3.255967,0.5841 4.042969,1.3711 0.81066,0.8107 1.2695309,2.2207 1.2695309,3.6465 0,1.4258 -0.4588709,2.8358 -1.2695309,3.6465 -0.346405,0.3464 -0.967593,0.5685 -1.744141,0.6504 -0.776548,0.082 -1.685399,0.029 -2.542969,-0.086 -1.715138,-0.2292 -3.210937,-0.6895 -3.210937,-0.6895 l -0.294922,0.9551 c 0,0 1.561543,0.4823 3.375,0.7246 0.906728,0.1211 1.879068,0.1867 2.779297,0.092 0.900229,-0.095 1.749298,-0.3431 2.345703,-0.9395 1.0749579,-1.0749 1.5624999,-2.7221 1.5624999,-4.3535 0,-1.6314 -0.487543,-3.2785 -1.5624999,-4.3535 -1.098617,-1.0986 -2.971634,-1.6275 -4.730469,-1.6641 z"
       id="path7124-2-6"
       inkscape:connector-curvature="0" />
  </g>
</svg>
