<?xml version="1.0" encoding="UTF-8" standalone="no"?>
<!-- Created with Inkscape (http://www.inkscape.org/) -->

<svg
   xmlns:dc="http://purl.org/dc/elements/1.1/"
   xmlns:cc="http://creativecommons.org/ns#"
   xmlns:rdf="http://www.w3.org/1999/02/22-rdf-syntax-ns#"
   xmlns:svg="http://www.w3.org/2000/svg"
   xmlns="http://www.w3.org/2000/svg"
   xmlns:sodipodi="http://sodipodi.sourceforge.net/DTD/sodipodi-0.dtd"
   xmlns:inkscape="http://www.inkscape.org/namespaces/inkscape"
   width="12"
   height="12"
   viewBox="0 0 12 12"
   version="1.1"
   id="svg3769"
   inkscape:version="0.92.1 r15371"
   sodipodi:docname="3 bo.svg">
  <defs
     id="defs3763" />
  <sodipodi:namedview
     id="base"
     pagecolor="#ffffff"
     bordercolor="#666666"
     borderopacity="1.0"
     inkscape:pageopacity="0.0"
     inkscape:pageshadow="2"
     inkscape:zoom="15.839192"
     inkscape:cx="4.5315882"
     inkscape:cy="8.081127"
     inkscape:document-units="px"
     inkscape:current-layer="layer1"
     showgrid="false"
     units="px"
     inkscape:window-width="1024"
     inkscape:window-height="552"
     inkscape:window-x="0"
     inkscape:window-y="0"
     inkscape:window-maximized="1" />
  <metadata
     id="metadata3766">
    <rdf:RDF>
      <cc:Work
         rdf:about="">
        <dc:format>image/svg+xml</dc:format>
        <dc:type
           rdf:resource="http://purl.org/dc/dcmitype/StillImage" />
        <dc:title></dc:title>
      </cc:Work>
    </rdf:RDF>
  </metadata>
  <g
     inkscape:label="Layer 1"
     inkscape:groupmode="layer"
     id="layer1"
     transform="translate(0,-1110.5197)">
    <path
       style="color:#000000;font-style:normal;font-variant:normal;font-weight:normal;font-stretch:normal;font-size:medium;line-height:normal;font-family:sans-serif;font-variant-ligatures:normal;font-variant-position:normal;font-variant-caps:normal;font-variant-numeric:normal;font-variant-alternates:normal;font-feature-settings:normal;text-indent:0;text-align:start;text-decoration:none;text-decoration-line:none;text-decoration-style:solid;text-decoration-color:#000000;letter-spacing:normal;word-spacing:normal;text-transform:none;writing-mode:lr-tb;direction:ltr;text-orientation:mixed;dominant-baseline:auto;baseline-shift:baseline;text-anchor:start;white-space:normal;shape-padding:0;clip-rule:nonzero;display:inline;overflow:visible;visibility:visible;opacity:1;isolation:auto;mix-blend-mode:normal;color-interpolation:sRGB;color-interpolation-filters:linearRGB;solid-color:#000000;solid-opacity:1;vector-effect:none;fill:#000000;fill-opacity:1;fill-rule:nonzero;stroke:none;stroke-width:1;stroke-linecap:butt;stroke-linejoin:miter;stroke-miterlimit:4;stroke-dasharray:none;stroke-dashoffset:0;stroke-opacity:1;color-rendering:auto;image-rendering:auto;shape-rendering:auto;text-rendering:auto;enable-background:accumulate"
       d="m 4.9623793,1110.5621 c -0.876551,0 -1.725042,0.118 -2.44336,0.3828 -0.718317,0.2648 -1.3356684,0.683 -1.62695344,1.336 -0.267565,0.5997 -0.172736,1.233 0.15820304,1.6347 0.3309404,0.4018 0.7967464,0.6112 1.2539074,0.7578 0.91432,0.2933 1.882812,0.3125 1.882812,0.3125 l 0.02734,-1 c 0,0 -0.881761,-0.033 -1.605469,-0.2656 -0.36185,-0.1161 -0.662561,-0.2882 -0.787105,-0.4394 -0.124544,-0.1512 -0.173419,-0.2425 -0.01758,-0.5918 0.135041,-0.3027 0.493555,-0.5977 1.060546,-0.8067 0.566992,-0.209 1.314538,-0.3218 2.095704,-0.3203 1.562331,0 3.25402,0.4982 4.033203,1.2774 0.81066,0.8106 1.2695307,2.2206 1.2695307,3.6464 0,1.4258 -0.4588707,2.8359 -1.2695307,3.6465 -0.784727,0.7848 -2.482762,1.3199 -4.041016,1.3438 -0.779127,0.012 -1.520786,-0.098 -2.082031,-0.3125 -0.561245,-0.2142 -0.916463,-0.5143 -1.060547,-0.8672 -0.109816,-0.269 -0.07503,-0.2841 0.05078,-0.4082 0.125812,-0.1241 0.433574,-0.2736 0.789063,-0.3672 0.710978,-0.1872 1.552734,-0.1973 1.552734,-0.1973 l -0.0039,-1 c 0,0 -0.919594,0 -1.802735,0.2305 -0.44157,0.1163 -0.890189,0.2796 -1.2363284,0.6211 -0.34613804,0.3415 -0.50116004,0.945 -0.27539004,1.498 0.28224204,0.6914 0.90679644,1.1495 1.63085944,1.4258 0.724063,0.2763 1.574536,0.3904 2.453125,0.377 1.757172,-0.027 3.631524,-0.5358 4.732416,-1.6367 1.0749567,-1.075 1.5624987,-2.7222 1.5624987,-4.3536 0,-1.6313 -0.487543,-3.2785 -1.5624987,-4.3535 -1.106436,-1.1064 -2.98518,-1.5669 -4.738281,-1.5703 z"
       id="path7124-2-6-8"
       inkscape:connector-curvature="0" />
  </g>
</svg>
