<?xml version="1.0" encoding="UTF-8" standalone="no"?>
<!-- Created with Inkscape (http://www.inkscape.org/) -->

<svg
   xmlns:dc="http://purl.org/dc/elements/1.1/"
   xmlns:cc="http://creativecommons.org/ns#"
   xmlns:rdf="http://www.w3.org/1999/02/22-rdf-syntax-ns#"
   xmlns:svg="http://www.w3.org/2000/svg"
   xmlns="http://www.w3.org/2000/svg"
   xmlns:sodipodi="http://sodipodi.sourceforge.net/DTD/sodipodi-0.dtd"
   xmlns:inkscape="http://www.inkscape.org/namespaces/inkscape"
   width="12"
   height="12"
   viewBox="0 0 12 12"
   version="1.1"
   id="svg3769"
   inkscape:version="0.92.1 r15371"
   sodipodi:docname="4 tu.svg">
  <defs
     id="defs3763" />
  <sodipodi:namedview
     id="base"
     pagecolor="#ffffff"
     bordercolor="#666666"
     borderopacity="1.0"
     inkscape:pageopacity="0.0"
     inkscape:pageshadow="2"
     inkscape:zoom="15.839192"
     inkscape:cx="4.5315882"
     inkscape:cy="8.081127"
     inkscape:document-units="px"
     inkscape:current-layer="layer1"
     showgrid="false"
     units="px"
     inkscape:window-width="1024"
     inkscape:window-height="552"
     inkscape:window-x="0"
     inkscape:window-y="0"
     inkscape:window-maximized="1" />
  <metadata
     id="metadata3766">
    <rdf:RDF>
      <cc:Work
         rdf:about="">
        <dc:format>image/svg+xml</dc:format>
        <dc:type
           rdf:resource="http://purl.org/dc/dcmitype/StillImage" />
        <dc:title></dc:title>
      </cc:Work>
    </rdf:RDF>
  </metadata>
  <g
     inkscape:label="Layer 1"
     inkscape:groupmode="layer"
     id="layer1"
     transform="translate(0,-1110.5197)">
    <path
       style="color:#000000;font-style:normal;font-variant:normal;font-weight:normal;font-stretch:normal;font-size:medium;line-height:normal;font-family:sans-serif;font-variant-ligatures:normal;font-variant-position:normal;font-variant-caps:normal;font-variant-numeric:normal;font-variant-alternates:normal;font-feature-settings:normal;text-indent:0;text-align:start;text-decoration:none;text-decoration-line:none;text-decoration-style:solid;text-decoration-color:#000000;letter-spacing:normal;word-spacing:normal;text-transform:none;writing-mode:lr-tb;direction:ltr;text-orientation:mixed;dominant-baseline:auto;baseline-shift:baseline;text-anchor:start;white-space:normal;shape-padding:0;clip-rule:nonzero;display:inline;overflow:visible;visibility:visible;opacity:1;isolation:auto;mix-blend-mode:normal;color-interpolation:sRGB;color-interpolation-filters:linearRGB;solid-color:#000000;solid-opacity:1;vector-effect:none;fill:#000000;fill-opacity:1;fill-rule:nonzero;stroke:none;stroke-width:1;stroke-linecap:butt;stroke-linejoin:miter;stroke-miterlimit:4;stroke-dasharray:none;stroke-dashoffset:0;stroke-opacity:1;color-rendering:auto;image-rendering:auto;shape-rendering:auto;text-rendering:auto;enable-background:accumulate"
       d="m 1.5224585,1111.4885 c 0,0 -0.48234,1.5615 -0.724609,3.375 -0.121135,0.9067 -0.184752,1.8791 -0.08984,2.7793 0.09491,0.9002 0.341095,1.7512 0.9375,2.3477 1.074958,1.0749 2.722123,1.5605 4.353516,1.5605 1.631392,0 3.28051,-0.4856 4.3554685,-1.5605 0.596404,-0.5965 0.842591,-1.4475 0.937499,-2.3477 0.09491,-0.9002 0.03129,-1.8726 -0.08984,-2.7793 -0.24227,-1.8135 -0.724609,-3.375 -0.724609,-3.375 l -0.9550855,0.2949 c 0,0 0.460318,1.4978 0.6894535,3.2129 0.114568,0.8576 0.167806,1.7664 0.08594,2.543 -0.08187,0.7765 -0.3059405,1.3977 -0.6523445,1.7441 -0.81066,0.8107 -2.220686,1.2675 -3.646484,1.2675 -1.425799,0 -2.833872,-0.4568 -3.644532,-1.2675 -0.346406,-0.3464 -0.570477,-0.9676 -0.652345,-1.7441 -0.08187,-0.7766 -0.02863,-1.6854 0.08594,-2.543 0.229135,-1.7151 0.689453,-3.2129 0.689453,-3.2129 z"
       id="path7124-48"
       inkscape:connector-curvature="0" />
  </g>
</svg>
