<?xml version="1.0" encoding="UTF-8" standalone="no"?>
<!-- Created with Inkscape (http://www.inkscape.org/) -->

<svg
   xmlns:dc="http://purl.org/dc/elements/1.1/"
   xmlns:cc="http://creativecommons.org/ns#"
   xmlns:rdf="http://www.w3.org/1999/02/22-rdf-syntax-ns#"
   xmlns:svg="http://www.w3.org/2000/svg"
   xmlns="http://www.w3.org/2000/svg"
   xmlns:sodipodi="http://sodipodi.sourceforge.net/DTD/sodipodi-0.dtd"
   xmlns:inkscape="http://www.inkscape.org/namespaces/inkscape"
   width="12"
   height="12"
   viewBox="0 0 12 12"
   version="1.1"
   id="svg3769"
   inkscape:version="0.92.1 r15371"
   sodipodi:docname="5 dí.svg">
  <defs
     id="defs3763" />
  <sodipodi:namedview
     id="base"
     pagecolor="#ffffff"
     bordercolor="#666666"
     borderopacity="1.0"
     inkscape:pageopacity="0.0"
     inkscape:pageshadow="2"
     inkscape:zoom="15.839192"
     inkscape:cx="4.5315882"
     inkscape:cy="8.081127"
     inkscape:document-units="px"
     inkscape:current-layer="layer1"
     showgrid="false"
     units="px"
     inkscape:window-width="1024"
     inkscape:window-height="552"
     inkscape:window-x="0"
     inkscape:window-y="0"
     inkscape:window-maximized="1" />
  <metadata
     id="metadata3766">
    <rdf:RDF>
      <cc:Work
         rdf:about="">
        <dc:format>image/svg+xml</dc:format>
        <dc:type
           rdf:resource="http://purl.org/dc/dcmitype/StillImage" />
        <dc:title></dc:title>
      </cc:Work>
    </rdf:RDF>
  </metadata>
  <g
     inkscape:label="Layer 1"
     inkscape:groupmode="layer"
     id="layer1"
     transform="translate(0,-1110.5197)">
    <path
       style="color:#000000;font-style:normal;font-variant:normal;font-weight:normal;font-stretch:normal;font-size:medium;line-height:normal;font-family:sans-serif;font-variant-ligatures:normal;font-variant-position:normal;font-variant-caps:normal;font-variant-numeric:normal;font-variant-alternates:normal;font-feature-settings:normal;text-indent:0;text-align:start;text-decoration:none;text-decoration-line:none;text-decoration-style:solid;text-decoration-color:#000000;letter-spacing:normal;word-spacing:normal;text-transform:none;writing-mode:lr-tb;direction:ltr;text-orientation:mixed;dominant-baseline:auto;baseline-shift:baseline;text-anchor:start;white-space:normal;shape-padding:0;clip-rule:nonzero;display:inline;overflow:visible;visibility:visible;opacity:1;isolation:auto;mix-blend-mode:normal;color-interpolation:sRGB;color-interpolation-filters:linearRGB;solid-color:#000000;solid-opacity:1;vector-effect:none;fill:#000000;fill-opacity:1;fill-rule:nonzero;stroke:none;stroke-width:1;stroke-linecap:butt;stroke-linejoin:miter;stroke-miterlimit:4;stroke-dasharray:none;stroke-dashoffset:0;stroke-opacity:1;color-rendering:auto;image-rendering:auto;shape-rendering:auto;text-rendering:auto;enable-background:accumulate"
       d="m 2.233859,1111.379 c -0.770489,0.2673 -1.29921602,0.8935 -1.59961002,1.6289 -0.300393,0.7354 -0.401342,1.5958 -0.363281,2.4785 0.07612,1.7654 0.684068,3.6294 1.77343802,4.7187 1.074958,1.075 2.722123,1.5606 4.353515,1.5606 1.631393,0 3.278558,-0.4856 4.353516,-1.5606 0.596405,-0.5964 0.844545,-1.4454 0.939453,-2.3457 0.09491,-0.9002 0.03129,-1.8745 -0.08984,-2.7812 -0.242273,-1.8135 -0.724613,-3.3731 -0.724613,-3.3731 l -0.955078,0.295 c 0,0 0.460318,1.4958 0.689453,3.2109 0.114567,0.8576 0.167806,1.7664 0.08594,2.543 -0.08187,0.7765 -0.305938,1.3977 -0.652343,1.7441 -0.81066,0.8107 -2.220686,1.2676 -3.646485,1.2676 -1.425798,0 -2.835823,-0.4569 -3.646484,-1.2676 -0.796253,-0.7962 -1.415594,-2.5047 -1.482425,-4.0547 -0.03341,-0.775 0.0664,-1.5087 0.291016,-2.0586 0.224619,-0.5499 0.543725,-0.9015 1.001953,-1.0605 0.364007,-0.1263 0.493496,-0.069 0.65625,0.068 0.162754,0.1371 0.327877,0.4313 0.439453,0.7813 0.223153,0.6999 0.240234,1.5351 0.240234,1.5351 l 1,-0.01 c 0,0 -0.0012,-0.9314 -0.287109,-1.8282 -0.142963,-0.4483 -0.353659,-0.9083 -0.75,-1.2421 -0.396341,-0.3339 -1.00912,-0.4644 -1.626953,-0.25 z"
       id="path7124-2-7"
       inkscape:connector-curvature="0" />
  </g>
</svg>
