<?xml version="1.0" encoding="UTF-8" standalone="no"?>
<!-- Created with Inkscape (http://www.inkscape.org/) -->

<svg
   xmlns:dc="http://purl.org/dc/elements/1.1/"
   xmlns:cc="http://creativecommons.org/ns#"
   xmlns:rdf="http://www.w3.org/1999/02/22-rdf-syntax-ns#"
   xmlns:svg="http://www.w3.org/2000/svg"
   xmlns="http://www.w3.org/2000/svg"
   xmlns:sodipodi="http://sodipodi.sourceforge.net/DTD/sodipodi-0.dtd"
   xmlns:inkscape="http://www.inkscape.org/namespaces/inkscape"
   width="12"
   height="12"
   viewBox="0 0 12 12"
   version="1.1"
   id="svg3769"
   inkscape:version="0.92.1 r15371"
   sodipodi:docname="6 ké.svg">
  <defs
     id="defs3763" />
  <sodipodi:namedview
     id="base"
     pagecolor="#ffffff"
     bordercolor="#666666"
     borderopacity="1.0"
     inkscape:pageopacity="0.0"
     inkscape:pageshadow="2"
     inkscape:zoom="15.839192"
     inkscape:cx="4.5315882"
     inkscape:cy="8.081127"
     inkscape:document-units="px"
     inkscape:current-layer="layer1"
     showgrid="false"
     units="px"
     inkscape:window-width="1024"
     inkscape:window-height="552"
     inkscape:window-x="0"
     inkscape:window-y="0"
     inkscape:window-maximized="1" />
  <metadata
     id="metadata3766">
    <rdf:RDF>
      <cc:Work
         rdf:about="">
        <dc:format>image/svg+xml</dc:format>
        <dc:type
           rdf:resource="http://purl.org/dc/dcmitype/StillImage" />
        <dc:title></dc:title>
      </cc:Work>
    </rdf:RDF>
  </metadata>
  <g
     inkscape:label="Layer 1"
     inkscape:groupmode="layer"
     id="layer1"
     transform="translate(0,-1110.5197)">
    <path
       style="color:#000000;font-style:normal;font-variant:normal;font-weight:normal;font-stretch:normal;font-size:medium;line-height:normal;font-family:sans-serif;font-variant-ligatures:normal;font-variant-position:normal;font-variant-caps:normal;font-variant-numeric:normal;font-variant-alternates:normal;font-feature-settings:normal;text-indent:0;text-align:start;text-decoration:none;text-decoration-line:none;text-decoration-style:solid;text-decoration-color:#000000;letter-spacing:normal;word-spacing:normal;text-transform:none;writing-mode:lr-tb;direction:ltr;text-orientation:mixed;dominant-baseline:auto;baseline-shift:baseline;text-anchor:start;white-space:normal;shape-padding:0;clip-rule:nonzero;display:inline;overflow:visible;visibility:visible;opacity:1;isolation:auto;mix-blend-mode:normal;color-interpolation:sRGB;color-interpolation-filters:linearRGB;solid-color:#000000;solid-opacity:1;vector-effect:none;fill:#000000;fill-opacity:1;fill-rule:nonzero;stroke:none;stroke-width:1;stroke-linecap:butt;stroke-linejoin:miter;stroke-miterlimit:4;stroke-dasharray:none;stroke-dashoffset:0;stroke-opacity:1;color-rendering:auto;image-rendering:auto;shape-rendering:auto;text-rendering:auto;enable-background:accumulate"
       d="m 9.8432365,1111.3943 c -0.609722,-0.2405 -1.231768,-0.1273 -1.630859,0.2051 -0.399091,0.3325 -0.609259,0.7953 -0.753906,1.2481 -0.289295,0.9055 -0.298828,1.8554 -0.298828,1.8554 l 1,0.02 c 0,0 0.02463,-0.8588 0.251953,-1.5703 0.113662,-0.3558 0.282276,-0.6543 0.439453,-0.7852 0.157176,-0.1309 0.26796,-0.1838 0.625,-0.043 0.373702,0.1474 0.6782835,0.5016 0.8945305,1.0606 0.216247,0.5589 0.322832,1.2998 0.306641,2.0781 -0.03238,1.5566 -0.584092,3.256 -1.3710935,4.043 -0.810661,0.8106 -2.220686,1.2676 -3.646484,1.2676 -1.425799,0 -2.835825,-0.457 -3.646485,-1.2676 -0.346405,-0.3464 -0.570475,-0.9676 -0.652344,-1.7442 -0.081868,-0.7765 -0.026676,-1.6854 0.087891,-2.5429 0.229135,-1.7152 0.689453,-3.211 0.689453,-3.211 l -0.957031,-0.2949 c 0,0 -0.48234002,1.5596 -0.72461002,3.3731 -0.121134,0.9067 -0.184751,1.881 -0.08984,2.7812 0.09491,0.9002 0.343048,1.7493 0.93945302,2.3457 1.074958,1.075 2.722123,1.5606 4.353516,1.5606 1.631392,0 3.278557,-0.4856 4.3535145,-1.5606 1.098618,-1.0986 1.627474,-2.9716 1.664063,-4.7305 0.01829,-0.8794 -0.09398,-1.7326 -0.375,-2.4589 -0.281025,-0.7264 -0.751939,-1.35 -1.4589875,-1.629 z"
       id="path7124-2-6-1"
       inkscape:connector-curvature="0" />
  </g>
</svg>
