<?xml version="1.0" encoding="UTF-8" standalone="no"?>
<!-- Created with Inkscape (http://www.inkscape.org/) -->

<svg
   xmlns:dc="http://purl.org/dc/elements/1.1/"
   xmlns:cc="http://creativecommons.org/ns#"
   xmlns:rdf="http://www.w3.org/1999/02/22-rdf-syntax-ns#"
   xmlns:svg="http://www.w3.org/2000/svg"
   xmlns="http://www.w3.org/2000/svg"
   xmlns:sodipodi="http://sodipodi.sourceforge.net/DTD/sodipodi-0.dtd"
   xmlns:inkscape="http://www.inkscape.org/namespaces/inkscape"
   width="12"
   height="12"
   viewBox="0 0 12 12"
   version="1.1"
   id="svg3769"
   inkscape:version="0.92.1 r15371"
   sodipodi:docname="7 gá.svg">
  <defs
     id="defs3763" />
  <sodipodi:namedview
     id="base"
     pagecolor="#ffffff"
     bordercolor="#666666"
     borderopacity="1.0"
     inkscape:pageopacity="0.0"
     inkscape:pageshadow="2"
     inkscape:zoom="15.839192"
     inkscape:cx="4.5315882"
     inkscape:cy="8.081127"
     inkscape:document-units="px"
     inkscape:current-layer="layer1"
     showgrid="false"
     units="px"
     inkscape:window-width="1024"
     inkscape:window-height="552"
     inkscape:window-x="0"
     inkscape:window-y="0"
     inkscape:window-maximized="1" />
  <metadata
     id="metadata3766">
    <rdf:RDF>
      <cc:Work
         rdf:about="">
        <dc:format>image/svg+xml</dc:format>
        <dc:type
           rdf:resource="http://purl.org/dc/dcmitype/StillImage" />
        <dc:title></dc:title>
      </cc:Work>
    </rdf:RDF>
  </metadata>
  <g
     inkscape:label="Layer 1"
     inkscape:groupmode="layer"
     id="layer1"
     transform="translate(0,-1110.5197)">
    <path
       style="color:#000000;font-style:normal;font-variant:normal;font-weight:normal;font-stretch:normal;font-size:medium;line-height:normal;font-family:sans-serif;font-variant-ligatures:normal;font-variant-position:normal;font-variant-caps:normal;font-variant-numeric:normal;font-variant-alternates:normal;font-feature-settings:normal;text-indent:0;text-align:start;text-decoration:none;text-decoration-line:none;text-decoration-style:solid;text-decoration-color:#000000;letter-spacing:normal;word-spacing:normal;text-transform:none;writing-mode:lr-tb;direction:ltr;text-orientation:mixed;dominant-baseline:auto;baseline-shift:baseline;text-anchor:start;white-space:normal;shape-padding:0;clip-rule:nonzero;display:inline;overflow:visible;visibility:visible;opacity:1;isolation:auto;mix-blend-mode:normal;color-interpolation:sRGB;color-interpolation-filters:linearRGB;solid-color:#000000;solid-opacity:1;vector-effect:none;fill:#000000;fill-opacity:1;fill-rule:nonzero;stroke:none;stroke-width:1;stroke-linecap:butt;stroke-linejoin:miter;stroke-miterlimit:4;stroke-dasharray:none;stroke-dashoffset:0;stroke-opacity:1;color-rendering:auto;image-rendering:auto;shape-rendering:auto;text-rendering:auto;enable-background:accumulate"
       d="m 1.8442708,1111.4056 c -0.691396,0.2822 -1.14754202,0.9048 -1.42382802,1.6289 -0.276286,0.7241 -0.390407,1.5765 -0.376953,2.4551 0.02691,1.7571 0.535827,3.6315 1.63671902,4.7324 1.074958,1.075 2.722123,1.5605 4.353515,1.5605 1.631393,0 3.278558,-0.4855 4.3535152,-1.5605 1.106437,-1.1064 1.566918,-2.9871 1.570313,-4.7402 0.0017,-0.8766 -0.119968,-1.7231 -0.384766,-2.4414 -0.264798,-0.7184 -0.682997,-1.3377 -1.335938,-1.629 -0.5997712,-0.2675 -1.2330042,-0.1707 -1.6347642,0.1602 -0.401761,0.3309 -0.611164,0.7967 -0.757813,1.2539 -0.293296,0.9143 -0.310547,1.8828 -0.310547,1.8828 l 1,0.027 c 0,0 0.03152,-0.8818 0.263672,-1.6055 0.116076,-0.3619 0.288257,-0.6626 0.439453,-0.7871 0.151197,-0.1246 0.242466,-0.1734 0.591797,-0.018 0.3027072,0.1351 0.5976262,0.4936 0.8066402,1.0606 0.209014,0.5669 0.323778,1.3125 0.322266,2.0937 -0.003,1.5623 -0.498161,3.256 -1.2773432,4.0352 -0.810661,0.8106 -2.220686,1.2675 -3.646485,1.2675 -1.425798,0 -2.835824,-0.4569 -3.646484,-1.2675 -0.784727,-0.7848 -1.319888,-2.4828 -1.34375,-4.0411 -0.01193,-0.7791 0.09639,-1.5207 0.310547,-2.082 0.214158,-0.5612 0.514232,-0.9164 0.867187,-1.0605 0.269011,-0.1098 0.284066,-0.075 0.408203,0.051 0.124138,0.1259 0.273591,0.4336 0.367188,0.7891 0.187194,0.711 0.197266,1.5527 0.197266,1.5527 l 1,-0.01 c 0,0 0.0021,-0.9196 -0.230469,-1.8027 -0.116262,-0.4416 -0.279562,-0.8883 -0.621094,-1.2344 -0.341532,-0.3462 -0.944989,-0.5012 -1.498047,-0.2754 z"
       id="path7124-2-6-8-7"
       inkscape:connector-curvature="0" />
  </g>
</svg>
