<?xml version="1.0" encoding="UTF-8" standalone="no"?>
<!-- Created with Inkscape (http://www.inkscape.org/) -->

<svg
   xmlns:dc="http://purl.org/dc/elements/1.1/"
   xmlns:cc="http://creativecommons.org/ns#"
   xmlns:rdf="http://www.w3.org/1999/02/22-rdf-syntax-ns#"
   xmlns:svg="http://www.w3.org/2000/svg"
   xmlns="http://www.w3.org/2000/svg"
   xmlns:sodipodi="http://sodipodi.sourceforge.net/DTD/sodipodi-0.dtd"
   xmlns:inkscape="http://www.inkscape.org/namespaces/inkscape"
   width="12"
   height="12"
   viewBox="0 0 12 12"
   version="1.1"
   id="svg3769"
   inkscape:version="0.92.1 r15371"
   sodipodi:docname="9 sú.svg">
  <defs
     id="defs3763" />
  <sodipodi:namedview
     id="base"
     pagecolor="#ffffff"
     bordercolor="#666666"
     borderopacity="1.0"
     inkscape:pageopacity="0.0"
     inkscape:pageshadow="2"
     inkscape:zoom="15.839192"
     inkscape:cx="4.5315882"
     inkscape:cy="8.081127"
     inkscape:document-units="px"
     inkscape:current-layer="layer1"
     showgrid="false"
     units="px"
     inkscape:window-width="1024"
     inkscape:window-height="552"
     inkscape:window-x="0"
     inkscape:window-y="0"
     inkscape:window-maximized="1" />
  <metadata
     id="metadata3766">
    <rdf:RDF>
      <cc:Work
         rdf:about="">
        <dc:format>image/svg+xml</dc:format>
        <dc:type
           rdf:resource="http://purl.org/dc/dcmitype/StillImage" />
        <dc:title></dc:title>
      </cc:Work>
    </rdf:RDF>
  </metadata>
  <g
     inkscape:label="Layer 1"
     inkscape:groupmode="layer"
     id="layer1"
     transform="translate(0,-1110.5197)">
    <path
       style="color:#000000;font-style:normal;font-variant:normal;font-weight:normal;font-stretch:normal;font-size:medium;line-height:normal;font-family:sans-serif;font-variant-ligatures:normal;font-variant-position:normal;font-variant-caps:normal;font-variant-numeric:normal;font-variant-alternates:normal;font-feature-settings:normal;text-indent:0;text-align:start;text-decoration:none;text-decoration-line:none;text-decoration-style:solid;text-decoration-color:#000000;letter-spacing:normal;word-spacing:normal;text-transform:none;writing-mode:lr-tb;direction:ltr;text-orientation:mixed;dominant-baseline:auto;baseline-shift:baseline;text-anchor:start;white-space:normal;shape-padding:0;clip-rule:nonzero;display:inline;overflow:visible;visibility:visible;opacity:1;isolation:auto;mix-blend-mode:normal;color-interpolation:sRGB;color-interpolation-filters:linearRGB;solid-color:#000000;solid-opacity:1;vector-effect:none;fill:#000000;fill-opacity:1;fill-rule:nonzero;stroke:none;stroke-width:1;stroke-linecap:butt;stroke-linejoin:miter;stroke-miterlimit:4;stroke-dasharray:none;stroke-dashoffset:0;stroke-opacity:1;color-rendering:auto;image-rendering:auto;shape-rendering:auto;text-rendering:auto;enable-background:accumulate"
       d="m 4.660311,1110.8288 c -0.90023,0.095 -1.7493,0.3431 -2.3457,0.9395 -1.07496,1.0749 -1.56054996,2.7221 -1.56054996,4.3535 0,1.6314 0.48558996,3.2785 1.56054996,4.3535 1.08937,1.0894 2.95329,1.6973 4.71875,1.7734 0.88273,0.038 1.74311,-0.063 2.47851,-0.3632 0.73541,-0.3004 1.36158,-0.8292 1.62891,-1.5997 0.21437,-0.6178 0.0858,-1.2306 -0.24805,-1.6269 -0.33388,-0.3964 -0.79575,-0.607 -1.24414,-0.75 -0.89677,-0.2859 -1.82812,-0.2871 -1.82812,-0.2871 l -0.01,1 c 0,0 0.83527,0.017 1.53516,0.2402 0.34994,0.1116 0.64414,0.2787 0.78125,0.4414 0.13711,0.1628 0.19466,0.2903 0.0684,0.6543 -0.15899,0.4582 -0.51065,0.7773 -1.06055,1.002 -0.5499,0.2246 -1.2836,0.3244 -2.05859,0.291 -1.54998,-0.067 -3.25844,-0.6862 -4.05469,-1.4824 -0.81066,-0.8107 -1.26758,-2.2207 -1.26758,-3.6465 0,-1.4258 0.45692,-2.8358 1.26758,-3.6465 0.34641,-0.3464 0.96759,-0.5705 1.74414,-0.6524 0.77655,-0.082 1.6854,-0.027 2.54297,0.088 1.71514,0.2292 3.21094,0.6875 3.21094,0.6875 l 0.29492,-0.955 c 0,0 -1.55959,-0.4824 -3.37305,-0.7246 -0.90654,-0.1212 -1.88083,-0.1848 -2.78106,-0.09 z"
       id="path7124-2-9"
       inkscape:connector-curvature="0" />
  </g>
</svg>
