<?xml version="1.0" encoding="UTF-8" standalone="no"?>
<!-- Created with Inkscape (http://www.inkscape.org/) -->

<svg
   xmlns:dc="http://purl.org/dc/elements/1.1/"
   xmlns:cc="http://creativecommons.org/ns#"
   xmlns:rdf="http://www.w3.org/1999/02/22-rdf-syntax-ns#"
   xmlns:svg="http://www.w3.org/2000/svg"
   xmlns="http://www.w3.org/2000/svg"
   xmlns:sodipodi="http://sodipodi.sourceforge.net/DTD/sodipodi-0.dtd"
   xmlns:inkscape="http://www.inkscape.org/namespaces/inkscape"
   width="12"
   height="12"
   viewBox="0 0 12 12"
   version="1.1"
   id="svg3769"
   inkscape:version="0.92.1 r15371"
   sodipodi:docname="A zì.svg">
  <defs
     id="defs3763" />
  <sodipodi:namedview
     id="base"
     pagecolor="#ffffff"
     bordercolor="#666666"
     borderopacity="1.0"
     inkscape:pageopacity="0.0"
     inkscape:pageshadow="2"
     inkscape:zoom="15.839192"
     inkscape:cx="4.5315882"
     inkscape:cy="8.081127"
     inkscape:document-units="px"
     inkscape:current-layer="layer1"
     showgrid="false"
     units="px"
     inkscape:window-width="1024"
     inkscape:window-height="552"
     inkscape:window-x="0"
     inkscape:window-y="0"
     inkscape:window-maximized="1" />
  <metadata
     id="metadata3766">
    <rdf:RDF>
      <cc:Work
         rdf:about="">
        <dc:format>image/svg+xml</dc:format>
        <dc:type
           rdf:resource="http://purl.org/dc/dcmitype/StillImage" />
        <dc:title></dc:title>
      </cc:Work>
    </rdf:RDF>
  </metadata>
  <g
     inkscape:label="Layer 1"
     inkscape:groupmode="layer"
     id="layer1"
     transform="translate(0,-1110.5197)">
    <path
       style="color:#000000;font-style:normal;font-variant:normal;font-weight:normal;font-stretch:normal;font-size:medium;line-height:normal;font-family:sans-serif;font-variant-ligatures:normal;font-variant-position:normal;font-variant-caps:normal;font-variant-numeric:normal;font-variant-alternates:normal;font-feature-settings:normal;text-indent:0;text-align:start;text-decoration:none;text-decoration-line:none;text-decoration-style:solid;text-decoration-color:#000000;letter-spacing:normal;word-spacing:normal;text-transform:none;writing-mode:lr-tb;direction:ltr;text-orientation:mixed;dominant-baseline:auto;baseline-shift:baseline;text-anchor:start;white-space:normal;shape-padding:0;clip-rule:nonzero;display:inline;overflow:visible;visibility:visible;opacity:1;isolation:auto;mix-blend-mode:normal;color-interpolation:sRGB;color-interpolation-filters:linearRGB;solid-color:#000000;solid-opacity:1;vector-effect:none;fill:#000000;fill-opacity:1;fill-rule:nonzero;stroke:none;stroke-width:1;stroke-linecap:butt;stroke-linejoin:miter;stroke-miterlimit:4;stroke-dasharray:none;stroke-dashoffset:0;stroke-opacity:1;color-rendering:auto;image-rendering:auto;shape-rendering:auto;text-rendering:auto;enable-background:accumulate"
       d="m 7.0382945,1110.8427 c -1.75883,0.037 -3.63185,0.5655 -4.73047,1.6641 -1.07495,1.075 -1.56249999,2.7221 -1.56249999,4.3535 0,1.6314 0.48754999,3.2786 1.56249999,4.3535 0.59641,0.5964 1.44548,0.8446 2.34571,0.9395 0.90023,0.095 1.87257,0.029 2.77929,-0.092 1.81346,-0.2423 3.3749995,-0.7246 3.3749995,-0.7246 l -0.29492,-0.9551 c 0,0 -1.4957995,0.4603 -3.2109295,0.6895 -0.85757,0.1145 -1.76643,0.1678 -2.54297,0.086 -0.77655,-0.082 -1.39774,-0.304 -1.74414,-0.6504 -0.81067,-0.8106 -1.26954,-2.2206 -1.26954,-3.6464 0,-1.4258 0.45887,-2.8358 1.26954,-3.6465 0.787,-0.787 2.48637,-1.3387 4.04296,-1.3711 0.7783,-0.016 1.51919,0.09 2.07813,0.3067 0.55894,0.2162 0.9111795,0.5208 1.0585895,0.8945 0.14085,0.357 0.088,0.4659 -0.043,0.6231 -0.13092,0.1571 -0.4274395,0.3277 -0.7831995,0.4414 -0.71152,0.2273 -1.57031,0.2519 -1.57031,0.2519 l 0.0195,1 c 0,0 0.94998,-0.01 1.85547,-0.2988 0.4527395,-0.1447 0.9156095,-0.3548 1.2480495,-0.7539 0.33244,-0.3991 0.44559,-1.0212 0.20507,-1.6309 -0.27891,-0.707 -0.90449,-1.1799 -1.6308595,-1.4609 -0.72636,-0.281 -1.57761,-0.3914 -2.45703,-0.3731 z"
       id="path7124-2-6-5"
       inkscape:connector-curvature="0" />
  </g>
</svg>
