<?xml version="1.0" encoding="UTF-8" standalone="no"?>
<!-- Created with Inkscape (http://www.inkscape.org/) -->

<svg
   xmlns:dc="http://purl.org/dc/elements/1.1/"
   xmlns:cc="http://creativecommons.org/ns#"
   xmlns:rdf="http://www.w3.org/1999/02/22-rdf-syntax-ns#"
   xmlns:svg="http://www.w3.org/2000/svg"
   xmlns="http://www.w3.org/2000/svg"
   xmlns:sodipodi="http://sodipodi.sourceforge.net/DTD/sodipodi-0.dtd"
   xmlns:inkscape="http://www.inkscape.org/namespaces/inkscape"
   width="12"
   height="12"
   viewBox="0 0 12 12"
   version="1.1"
   id="svg3769"
   inkscape:version="0.92.1 r15371"
   sodipodi:docname="B cè.svg">
  <defs
     id="defs3763" />
  <sodipodi:namedview
     id="base"
     pagecolor="#ffffff"
     bordercolor="#666666"
     borderopacity="1.0"
     inkscape:pageopacity="0.0"
     inkscape:pageshadow="2"
     inkscape:zoom="15.839192"
     inkscape:cx="4.5315882"
     inkscape:cy="8.081127"
     inkscape:document-units="px"
     inkscape:current-layer="layer1"
     showgrid="false"
     units="px"
     inkscape:window-width="1024"
     inkscape:window-height="552"
     inkscape:window-x="0"
     inkscape:window-y="0"
     inkscape:window-maximized="1" />
  <metadata
     id="metadata3766">
    <rdf:RDF>
      <cc:Work
         rdf:about="">
        <dc:format>image/svg+xml</dc:format>
        <dc:type
           rdf:resource="http://purl.org/dc/dcmitype/StillImage" />
        <dc:title></dc:title>
      </cc:Work>
    </rdf:RDF>
  </metadata>
  <g
     inkscape:label="Layer 1"
     inkscape:groupmode="layer"
     id="layer1"
     transform="translate(0,-1110.5197)">
    <path
       style="color:#000000;font-style:normal;font-variant:normal;font-weight:normal;font-stretch:normal;font-size:medium;line-height:normal;font-family:sans-serif;font-variant-ligatures:normal;font-variant-position:normal;font-variant-caps:normal;font-variant-numeric:normal;font-variant-alternates:normal;font-feature-settings:normal;text-indent:0;text-align:start;text-decoration:none;text-decoration-line:none;text-decoration-style:solid;text-decoration-color:#000000;letter-spacing:normal;word-spacing:normal;text-transform:none;writing-mode:lr-tb;direction:ltr;text-orientation:mixed;dominant-baseline:auto;baseline-shift:baseline;text-anchor:start;white-space:normal;shape-padding:0;clip-rule:nonzero;display:inline;overflow:visible;visibility:visible;opacity:1;isolation:auto;mix-blend-mode:normal;color-interpolation:sRGB;color-interpolation-filters:linearRGB;solid-color:#000000;solid-opacity:1;vector-effect:none;fill:#000000;fill-opacity:1;fill-rule:nonzero;stroke:none;stroke-width:1;stroke-linecap:butt;stroke-linejoin:miter;stroke-miterlimit:4;stroke-dasharray:none;stroke-dashoffset:0;stroke-opacity:1;color-rendering:auto;image-rendering:auto;shape-rendering:auto;text-rendering:auto;enable-background:accumulate"
       d="m 7.0376444,1110.5622 c -1.7531,0 -3.6338,0.4639 -4.74024,1.5703 -1.07495,1.075 -1.56054004,2.7222 -1.56054004,4.3535 -10e-6,1.6314 0.48558004,3.2786 1.56054004,4.3536 1.1009,1.1009 2.9772,1.6098 4.73438,1.6367 0.87859,0.013 1.72906,-0.1007 2.45312,-0.377 0.7240696,-0.2763 1.3466696,-0.7344 1.6289096,-1.4258 0.22577,-0.553 0.0727,-1.1565 -0.27344,-1.498 -0.34614,-0.3415 -0.79476,-0.5048 -1.2363296,-0.6211 -0.88314,-0.2325 -1.80273,-0.2305 -1.80273,-0.2305 l -0.004,1 c 0,0 0.84176,0.01 1.55274,0.1973 0.35549,0.094 0.6612996,0.2431 0.7871096,0.3672 0.12581,0.1241 0.16059,0.1392 0.0508,0.4082 -0.14409,0.3529 -0.4973496,0.653 -1.0585996,0.8672 -0.56124,0.2141 -1.3029,0.3244 -2.08203,0.3125 -1.55825,-0.024 -3.25824,-0.559 -4.04297,-1.3438 -0.81066,-0.8106 -1.26757,-2.2207 -1.26757,-3.6465 0,-1.4258 0.45692,-2.8358 1.26757,-3.6464 0.77919,-0.7792 2.47283,-1.2744 4.03516,-1.2774 0.78117,0 1.52676,0.1113 2.09375,0.3203 0.56699,0.209 0.9274596,0.504 1.0624996,0.8067 0.15584,0.3493 0.10697,0.4406 -0.0176,0.5918 -0.12454,0.1512 -0.4252496,0.3233 -0.7871096,0.4394 -0.7237,0.2322 -1.60547,0.2656 -1.60547,0.2656 l 0.0274,1 c 0,0 0.96849,-0.019 1.88281,-0.3125 0.4571596,-0.1466 0.9229696,-0.356 1.2539096,-0.7578 0.33094,-0.4017 0.42576,-1.035 0.1582,-1.6347 -0.29128,-0.653 -0.90864,-1.0712 -1.6269496,-1.336 -0.71832,-0.2648 -1.56681,-0.3845 -2.44336,-0.3828 z"
       id="path7124-2-6-8-0"
       inkscape:connector-curvature="0" />
  </g>
</svg>
