<?xml version="1.0" encoding="UTF-8" standalone="no"?>
<!-- Created with Inkscape (http://www.inkscape.org/) -->

<svg
   xmlns:dc="http://purl.org/dc/elements/1.1/"
   xmlns:cc="http://creativecommons.org/ns#"
   xmlns:rdf="http://www.w3.org/1999/02/22-rdf-syntax-ns#"
   xmlns:svg="http://www.w3.org/2000/svg"
   xmlns="http://www.w3.org/2000/svg"
   xmlns:sodipodi="http://sodipodi.sourceforge.net/DTD/sodipodi-0.dtd"
   xmlns:inkscape="http://www.inkscape.org/namespaces/inkscape"
   width="12"
   height="12"
   viewBox="0 0 12 12"
   version="1.1"
   id="svg3769"
   inkscape:version="0.92.1 r15371"
   sodipodi:docname="C jà.svg">
  <defs
     id="defs3763" />
  <sodipodi:namedview
     id="base"
     pagecolor="#ffffff"
     bordercolor="#666666"
     borderopacity="1.0"
     inkscape:pageopacity="0.0"
     inkscape:pageshadow="2"
     inkscape:zoom="15.839192"
     inkscape:cx="4.5315882"
     inkscape:cy="8.081127"
     inkscape:document-units="px"
     inkscape:current-layer="layer1"
     showgrid="false"
     units="px"
     inkscape:window-width="1024"
     inkscape:window-height="552"
     inkscape:window-x="0"
     inkscape:window-y="0"
     inkscape:window-maximized="1" />
  <metadata
     id="metadata3766">
    <rdf:RDF>
      <cc:Work
         rdf:about="">
        <dc:format>image/svg+xml</dc:format>
        <dc:type
           rdf:resource="http://purl.org/dc/dcmitype/StillImage" />
        <dc:title></dc:title>
      </cc:Work>
    </rdf:RDF>
  </metadata>
  <g
     inkscape:label="Layer 1"
     inkscape:groupmode="layer"
     id="layer1"
     transform="translate(0,-1110.5197)">
    <path
       style="color:#000000;font-style:normal;font-variant:normal;font-weight:normal;font-stretch:normal;font-size:medium;line-height:normal;font-family:sans-serif;font-variant-ligatures:normal;font-variant-position:normal;font-variant-caps:normal;font-variant-numeric:normal;font-variant-alternates:normal;font-feature-settings:normal;text-indent:0;text-align:start;text-decoration:none;text-decoration-line:none;text-decoration-style:solid;text-decoration-color:#000000;letter-spacing:normal;word-spacing:normal;text-transform:none;writing-mode:lr-tb;direction:ltr;text-orientation:mixed;dominant-baseline:auto;baseline-shift:baseline;text-anchor:start;white-space:normal;shape-padding:0;clip-rule:nonzero;display:inline;overflow:visible;visibility:visible;opacity:1;isolation:auto;mix-blend-mode:normal;color-interpolation:sRGB;color-interpolation-filters:linearRGB;solid-color:#000000;solid-opacity:1;vector-effect:none;fill:#000000;fill-opacity:1;fill-rule:nonzero;stroke:none;stroke-width:1;stroke-linecap:butt;stroke-linejoin:miter;stroke-miterlimit:4;stroke-dasharray:none;stroke-dashoffset:0;stroke-opacity:1;color-rendering:auto;image-rendering:auto;shape-rendering:auto;text-rendering:auto;enable-background:accumulate"
       d="m 5.9990193,1111.4895 c -1.6314,0 -3.27857,0.4856 -4.3535201,1.5605 -0.5964,0.5965 -0.84258999,1.4455 -0.93749999,2.3458 -0.0949,0.9002 -0.0313,1.8745 0.0898,2.7812 0.24226999,1.8135 0.72460999,3.373 0.72460999,3.373 l 0.9550801,-0.2949 c 0,0 -0.46032,-1.4958 -0.68945,-3.2109 -0.11457,-0.8577 -0.1678101,-1.7664 -0.0859,-2.543 0.0819,-0.7765 0.30399,-1.3977 0.65039,-1.7441 0.81066,-0.8107 2.22069,-1.2676 3.64649,-1.2676 1.42579,0 2.83582,0.4569 3.64648,1.2676 0.34641,0.3464 0.5704697,0.9676 0.6523397,1.7441 0.0819,0.7766 0.0286,1.6854 -0.0859,2.543 -0.2291397,1.715 -0.6894597,3.2109 -0.6894597,3.2109 l 0.9550797,0.2949 c 0,0 0.482341,-1.5595 0.724611,-3.373 0.12114,-0.9067 0.18475,-1.881 0.0898,-2.7812 -0.0949,-0.9003 -0.34304,-1.7493 -0.939451,-2.3458 -1.0749597,-1.0749 -2.7221197,-1.5605 -4.3535097,-1.5605 z"
       id="path7124-48-2"
       inkscape:connector-curvature="0" />
  </g>
</svg>
