<?xml version="1.0" encoding="UTF-8" standalone="no"?>
<!-- Created with Inkscape (http://www.inkscape.org/) -->

<svg
   xmlns:dc="http://purl.org/dc/elements/1.1/"
   xmlns:cc="http://creativecommons.org/ns#"
   xmlns:rdf="http://www.w3.org/1999/02/22-rdf-syntax-ns#"
   xmlns:svg="http://www.w3.org/2000/svg"
   xmlns="http://www.w3.org/2000/svg"
   xmlns:sodipodi="http://sodipodi.sourceforge.net/DTD/sodipodi-0.dtd"
   xmlns:inkscape="http://www.inkscape.org/namespaces/inkscape"
   width="12"
   height="12"
   viewBox="0 0 12 12"
   version="1.1"
   id="svg3769"
   inkscape:version="0.92.1 r15371"
   sodipodi:docname="D fò.svg">
  <defs
     id="defs3763" />
  <sodipodi:namedview
     id="base"
     pagecolor="#ffffff"
     bordercolor="#666666"
     borderopacity="1.0"
     inkscape:pageopacity="0.0"
     inkscape:pageshadow="2"
     inkscape:zoom="15.839192"
     inkscape:cx="4.5315882"
     inkscape:cy="8.081127"
     inkscape:document-units="px"
     inkscape:current-layer="layer1"
     showgrid="false"
     units="px"
     inkscape:window-width="1024"
     inkscape:window-height="552"
     inkscape:window-x="0"
     inkscape:window-y="0"
     inkscape:window-maximized="1" />
  <metadata
     id="metadata3766">
    <rdf:RDF>
      <cc:Work
         rdf:about="">
        <dc:format>image/svg+xml</dc:format>
        <dc:type
           rdf:resource="http://purl.org/dc/dcmitype/StillImage" />
        <dc:title></dc:title>
      </cc:Work>
    </rdf:RDF>
  </metadata>
  <g
     inkscape:label="Layer 1"
     inkscape:groupmode="layer"
     id="layer1"
     transform="translate(0,-1110.5197)">
    <path
       style="color:#000000;font-style:normal;font-variant:normal;font-weight:normal;font-stretch:normal;font-size:medium;line-height:normal;font-family:sans-serif;font-variant-ligatures:normal;font-variant-position:normal;font-variant-caps:normal;font-variant-numeric:normal;font-variant-alternates:normal;font-feature-settings:normal;text-indent:0;text-align:start;text-decoration:none;text-decoration-line:none;text-decoration-style:solid;text-decoration-color:#000000;letter-spacing:normal;word-spacing:normal;text-transform:none;writing-mode:lr-tb;direction:ltr;text-orientation:mixed;dominant-baseline:auto;baseline-shift:baseline;text-anchor:start;white-space:normal;shape-padding:0;clip-rule:nonzero;display:inline;overflow:visible;visibility:visible;opacity:1;isolation:auto;mix-blend-mode:normal;color-interpolation:sRGB;color-interpolation-filters:linearRGB;solid-color:#000000;solid-opacity:1;vector-effect:none;fill:#000000;fill-opacity:1;fill-rule:nonzero;stroke:none;stroke-width:1;stroke-linecap:butt;stroke-linejoin:miter;stroke-miterlimit:4;stroke-dasharray:none;stroke-dashoffset:0;stroke-opacity:1;color-rendering:auto;image-rendering:auto;shape-rendering:auto;text-rendering:auto;enable-background:accumulate"
       d="m 6.3979159,1111.2744 c -1.63139,0 -3.27855,0.4856 -4.35351,1.5605 -1.08937002,1.0894 -1.69732001,2.9533 -1.77344001,4.7188 -0.0381,0.8827 0.0629,1.7431 0.36327999,2.4785 0.3004,0.7354 0.82912002,1.3616 1.59961002,1.6289 0.61784,0.2144 1.23061,0.084 1.62696,-0.25 0.39634,-0.3339 0.60703,-0.7938 0.75,-1.2422 0.28592,-0.8967 0.2871,-1.8281 0.2871,-1.8281 l -1,-0.012 c 0,0 -0.0171,0.8353 -0.24023,1.5351 -0.11158,0.35 -0.27865,0.6461 -0.44141,0.7832 -0.16275,0.1372 -0.29029,0.1947 -0.65429,0.068 -0.45823,-0.159 -0.77734,-0.5126 -1.00196,-1.0625 -0.22462,-0.5499 -0.32443,-1.2816 -0.29101,-2.0566 0.0668,-1.55 0.68617,-3.2585 1.48242,-4.0547 0.81066,-0.8107 2.22069,-1.2676 3.64648,-1.2676 1.4258,0 2.83583,0.4569 3.6464901,1.2676 0.346399,0.3464 0.570469,0.9676 0.652339,1.7441 0.0819,0.7766 0.0286,1.6854 -0.0859,2.543 -0.22914,1.7151 -0.6894591,3.2109 -0.6894591,3.2109 l 0.9550791,0.2949 c 0,0 0.48234,-1.5595 0.72461,-3.373 0.12113,-0.9067 0.18475,-1.881 0.0898,-2.7812 -0.0949,-0.9003 -0.34305,-1.7493 -0.93945,-2.3458 -1.0749591,-1.0749 -2.7221191,-1.5605 -4.3535191,-1.5605 z"
       id="path7124-2-7-7"
       inkscape:connector-curvature="0" />
  </g>
</svg>
