<?xml version="1.0" encoding="UTF-8" standalone="no"?>
<!-- Created with Inkscape (http://www.inkscape.org/) -->

<svg
   xmlns:dc="http://purl.org/dc/elements/1.1/"
   xmlns:cc="http://creativecommons.org/ns#"
   xmlns:rdf="http://www.w3.org/1999/02/22-rdf-syntax-ns#"
   xmlns:svg="http://www.w3.org/2000/svg"
   xmlns="http://www.w3.org/2000/svg"
   xmlns:sodipodi="http://sodipodi.sourceforge.net/DTD/sodipodi-0.dtd"
   xmlns:inkscape="http://www.inkscape.org/namespaces/inkscape"
   width="12"
   height="12"
   viewBox="0 0 12 12"
   version="1.1"
   id="svg3769"
   inkscape:version="0.92.1 r15371"
   sodipodi:docname="E vù.svg">
  <defs
     id="defs3763" />
  <sodipodi:namedview
     id="base"
     pagecolor="#ffffff"
     bordercolor="#666666"
     borderopacity="1.0"
     inkscape:pageopacity="0.0"
     inkscape:pageshadow="2"
     inkscape:zoom="15.839192"
     inkscape:cx="4.5315882"
     inkscape:cy="8.081127"
     inkscape:document-units="px"
     inkscape:current-layer="layer1"
     showgrid="false"
     units="px"
     inkscape:window-width="1024"
     inkscape:window-height="552"
     inkscape:window-x="0"
     inkscape:window-y="0"
     inkscape:window-maximized="1" />
  <metadata
     id="metadata3766">
    <rdf:RDF>
      <cc:Work
         rdf:about="">
        <dc:format>image/svg+xml</dc:format>
        <dc:type
           rdf:resource="http://purl.org/dc/dcmitype/StillImage" />
        <dc:title></dc:title>
      </cc:Work>
    </rdf:RDF>
  </metadata>
  <g
     inkscape:label="Layer 1"
     inkscape:groupmode="layer"
     id="layer1"
     transform="translate(0,-1110.5197)">
    <path
       style="color:#000000;font-style:normal;font-variant:normal;font-weight:normal;font-stretch:normal;font-size:medium;line-height:normal;font-family:sans-serif;font-variant-ligatures:normal;font-variant-position:normal;font-variant-caps:normal;font-variant-numeric:normal;font-variant-alternates:normal;font-feature-settings:normal;text-indent:0;text-align:start;text-decoration:none;text-decoration-line:none;text-decoration-style:solid;text-decoration-color:#000000;letter-spacing:normal;word-spacing:normal;text-transform:none;writing-mode:lr-tb;direction:ltr;text-orientation:mixed;dominant-baseline:auto;baseline-shift:baseline;text-anchor:start;white-space:normal;shape-padding:0;clip-rule:nonzero;display:inline;overflow:visible;visibility:visible;opacity:1;isolation:auto;mix-blend-mode:normal;color-interpolation:sRGB;color-interpolation-filters:linearRGB;solid-color:#000000;solid-opacity:1;vector-effect:none;fill:#000000;fill-opacity:1;fill-rule:nonzero;stroke:none;stroke-width:1;stroke-linecap:butt;stroke-linejoin:miter;stroke-miterlimit:4;stroke-dasharray:none;stroke-dashoffset:0;stroke-opacity:1;color-rendering:auto;image-rendering:auto;shape-rendering:auto;text-rendering:auto;enable-background:accumulate"
       d="m 5.6596559,1111.2658 c -1.63139,0 -3.27856,0.4856 -4.35352,1.5605 -0.59640004,0.5965 -0.84454004,1.4475 -0.93945004,2.3477 -0.0949,0.9002 -0.0313,1.8726 0.0898,2.7793 0.24227,1.8135 0.72657004,3.375 0.72657004,3.375 l 0.95507,-0.2949 c 0,0 -0.46031,-1.4978 -0.68945,-3.2129 -0.11457,-0.8576 -0.16976,-1.7664 -0.0879,-2.543 0.0819,-0.7765 0.30594,-1.3977 0.65234,-1.7441 0.81066,-0.8107 2.22069,-1.2676 3.64649,-1.2676 1.4258,0 2.83582,0.4569 3.64648,1.2676 0.7870001,0.787 1.3387111,2.4883 1.3711011,4.0449 0.0162,0.7783 -0.0904,1.5172 -0.30664,2.0762 -0.216251,0.5589 -0.5208311,0.9131 -0.8945411,1.0605 -0.35704,0.1409 -0.46782,0.088 -0.625,-0.043 -0.15717,-0.131 -0.32579,-0.4294 -0.43945,-0.7852 -0.22732,-0.7115 -0.25195,-1.5684 -0.25195,-1.5684 l -1,0.018 c 0,0 0.01,0.95 0.29883,1.8555 0.14464,0.4527 0.35481,0.9156 0.7539,1.248 0.39909,0.3325 1.02114,0.4456 1.63086,0.2051 0.7070511,-0.2789 1.1799211,-0.9025 1.4609411,-1.6289 0.28102,-0.7264 0.39134,-1.5796 0.37305,-2.459 -0.0366,-1.7588 -0.56545,-3.6318 -1.664071,-4.7305 -1.0749601,-1.0749 -2.7221201,-1.5605 -4.3535101,-1.5605 z"
       id="path7124-2-6-1-2"
       inkscape:connector-curvature="0" />
  </g>
</svg>
