<?xml version="1.0" encoding="UTF-8" standalone="no"?>
<!-- Created with Inkscape (http://www.inkscape.org/) -->

<svg
   xmlns:dc="http://purl.org/dc/elements/1.1/"
   xmlns:cc="http://creativecommons.org/ns#"
   xmlns:rdf="http://www.w3.org/1999/02/22-rdf-syntax-ns#"
   xmlns:svg="http://www.w3.org/2000/svg"
   xmlns="http://www.w3.org/2000/svg"
   xmlns:sodipodi="http://sodipodi.sourceforge.net/DTD/sodipodi-0.dtd"
   xmlns:inkscape="http://www.inkscape.org/namespaces/inkscape"
   width="12"
   height="12"
   viewBox="0 0 12 12"
   version="1.1"
   id="svg3769"
   inkscape:version="0.92.1 r15371"
   sodipodi:docname="F yh.svg">
  <defs
     id="defs3763" />
  <sodipodi:namedview
     id="base"
     pagecolor="#ffffff"
     bordercolor="#666666"
     borderopacity="1.0"
     inkscape:pageopacity="0.0"
     inkscape:pageshadow="2"
     inkscape:zoom="15.839192"
     inkscape:cx="4.5315882"
     inkscape:cy="8.081127"
     inkscape:document-units="px"
     inkscape:current-layer="layer1"
     showgrid="false"
     units="px"
     inkscape:window-width="1024"
     inkscape:window-height="552"
     inkscape:window-x="0"
     inkscape:window-y="0"
     inkscape:window-maximized="1" />
  <metadata
     id="metadata3766">
    <rdf:RDF>
      <cc:Work
         rdf:about="">
        <dc:format>image/svg+xml</dc:format>
        <dc:type
           rdf:resource="http://purl.org/dc/dcmitype/StillImage" />
        <dc:title></dc:title>
      </cc:Work>
    </rdf:RDF>
  </metadata>
  <g
     inkscape:label="Layer 1"
     inkscape:groupmode="layer"
     id="layer1"
     transform="translate(0,-1110.5197)">
    <path
       style="color:#000000;font-style:normal;font-variant:normal;font-weight:normal;font-stretch:normal;font-size:medium;line-height:normal;font-family:sans-serif;font-variant-ligatures:normal;font-variant-position:normal;font-variant-caps:normal;font-variant-numeric:normal;font-variant-alternates:normal;font-feature-settings:normal;text-indent:0;text-align:start;text-decoration:none;text-decoration-line:none;text-decoration-style:solid;text-decoration-color:#000000;letter-spacing:normal;word-spacing:normal;text-transform:none;writing-mode:lr-tb;direction:ltr;text-orientation:mixed;dominant-baseline:auto;baseline-shift:baseline;text-anchor:start;white-space:normal;shape-padding:0;clip-rule:nonzero;display:inline;overflow:visible;visibility:visible;opacity:1;isolation:auto;mix-blend-mode:normal;color-interpolation:sRGB;color-interpolation-filters:linearRGB;solid-color:#000000;solid-opacity:1;vector-effect:none;fill:#000000;fill-opacity:1;fill-rule:nonzero;stroke:none;stroke-width:1;stroke-linecap:butt;stroke-linejoin:miter;stroke-miterlimit:4;stroke-dasharray:none;stroke-dashoffset:0;stroke-opacity:1;color-rendering:auto;image-rendering:auto;shape-rendering:auto;text-rendering:auto;enable-background:accumulate"
       d="m 5.9662823,1111.2597 c -1.63139,0 -3.27856,0.4856 -4.35352,1.5605 -1.10643002,1.1065 -1.56691002,2.9872 -1.57031002,4.7403 -0.002,0.8765 0.11802,1.7231 0.38281,2.4414 0.2648,0.7183 0.68495002,1.3357 1.33789002,1.6269 0.59978,0.2676 1.23301,0.1728 1.63477,-0.1582 0.40176,-0.3309 0.60921,-0.7967 0.75586,-1.2539 0.2933,-0.9143 0.3125,-1.8828 0.3125,-1.8828 l -1,-0.027 c 0,0 -0.0315,0.8817 -0.26367,1.6054 -0.11608,0.3619 -0.29021,0.6626 -0.44141,0.7872 -0.15119,0.1245 -0.24247,0.1734 -0.59179,0.017 -0.30271,-0.135 -0.59568,-0.4935 -0.80469,-1.0605 -0.20902,-0.567 -0.32378,-1.3126 -0.32227,-2.0938 0.003,-1.5623 0.49816,-3.2559 1.27735,-4.0351 0.81066,-0.8107 2.22068,-1.2676 3.64648,-1.2676 1.4258,0 2.83582,0.4569 3.64648,1.2676 0.7847297,0.7847 1.3198897,2.4827 1.3437497,4.041 0.0119,0.7791 -0.0964,1.5208 -0.31054,2.082 -0.21416,0.5613 -0.51619,0.9165 -0.8691397,1.0606 -0.26901,0.1098 -0.28407,0.075 -0.40821,-0.051 -0.12413,-0.1258 -0.27163,-0.4336 -0.36523,-0.7891 -0.18719,-0.7109 -0.19922,-1.5527 -0.19922,-1.5527 h -1 c 0,0 -0.002,0.9196 0.23047,1.8027 0.11626,0.4416 0.28151,0.8902 0.62305,1.2364 0.34153,0.3461 0.94498,0.5011 1.4980397,0.2754 0.6914,-0.2823 1.14755,-0.9049 1.42383,-1.6289 0.27629,-0.7241 0.39041,-1.5765 0.37695,-2.4551 -0.0269,-1.7572 -0.53582,-3.6316 -1.63671,-4.7324 -1.0749597,-1.075 -2.7221297,-1.5606 -4.3535197,-1.5606 z"
       id="path7124-2-6-8-7-2"
       inkscape:connector-curvature="0" />
  </g>
</svg>
