<?xml version="1.0" encoding="UTF-8" standalone="no"?>
<!-- Created with Inkscape (http://www.inkscape.org/) -->

<svg
   xmlns:dc="http://purl.org/dc/elements/1.1/"
   xmlns:cc="http://creativecommons.org/ns#"
   xmlns:rdf="http://www.w3.org/1999/02/22-rdf-syntax-ns#"
   xmlns:svg="http://www.w3.org/2000/svg"
   xmlns="http://www.w3.org/2000/svg"
   xmlns:sodipodi="http://sodipodi.sourceforge.net/DTD/sodipodi-0.dtd"
   xmlns:inkscape="http://www.inkscape.org/namespaces/inkscape"
   width="16"
   height="24"
   viewBox="0 0 4.2333332 6.3499998"
   version="1.1"
   id="svg4689"
   inkscape:version="0.92.2 (5c3e80d, 2017-08-06)"
   sodipodi:docname="0x70 C.svg">
  <defs
     id="defs4683" />
  <sodipodi:namedview
     id="base"
     pagecolor="#ffffff"
     bordercolor="#666666"
     borderopacity="1.0"
     inkscape:pageopacity="0.0"
     inkscape:pageshadow="2"
     inkscape:zoom="22.4"
     inkscape:cx="20.303674"
     inkscape:cy="7.9178746"
     inkscape:document-units="mm"
     inkscape:current-layer="layer1"
     showgrid="true"
     units="px"
     inkscape:window-width="1920"
     inkscape:window-height="1053"
     inkscape:window-x="0"
     inkscape:window-y="795"
     inkscape:window-maximized="1">
    <inkscape:grid
       type="xygrid"
       id="grid5249"
       spacingx="0.52916665"
       spacingy="0.52916665" />
  </sodipodi:namedview>
  <metadata
     id="metadata4686">
    <rdf:RDF>
      <cc:Work
         rdf:about="">
        <dc:format>image/svg+xml</dc:format>
        <dc:type
           rdf:resource="http://purl.org/dc/dcmitype/StillImage" />
        <dc:title></dc:title>
      </cc:Work>
    </rdf:RDF>
  </metadata>
  <g
     inkscape:label="Layer 1"
     inkscape:groupmode="layer"
     id="layer1"
     transform="translate(0,-290.65)">
    <path
       style="color:#000000;font-style:normal;font-variant:normal;font-weight:normal;font-stretch:normal;font-size:medium;line-height:normal;font-family:sans-serif;font-variant-ligatures:normal;font-variant-position:normal;font-variant-caps:normal;font-variant-numeric:normal;font-variant-alternates:normal;font-feature-settings:normal;text-indent:0;text-align:start;text-decoration:none;text-decoration-line:none;text-decoration-style:solid;text-decoration-color:#000000;letter-spacing:normal;word-spacing:normal;text-transform:none;writing-mode:lr-tb;direction:ltr;text-orientation:mixed;dominant-baseline:auto;baseline-shift:baseline;text-anchor:start;white-space:normal;shape-padding:0;clip-rule:nonzero;display:inline;overflow:visible;visibility:visible;opacity:1;isolation:auto;mix-blend-mode:normal;color-interpolation:sRGB;color-interpolation-filters:linearRGB;solid-color:#000000;solid-opacity:1;vector-effect:none;fill:#000000;fill-opacity:1;fill-rule:nonzero;stroke:none;stroke-width:0.26458332;stroke-linecap:butt;stroke-linejoin:miter;stroke-miterlimit:4;stroke-dasharray:none;stroke-dashoffset:0;stroke-opacity:1;color-rendering:auto;image-rendering:auto;shape-rendering:auto;text-rendering:auto;enable-background:accumulate"
       d="m 3.262852,291.26647 -0.2532169,0.078 c 0,0 0.2464991,0.80074 0.369488,1.72134 0.061495,0.4603 0.091556,0.94938 0.046509,1.37666 -0.045048,0.42729 -0.1665447,0.78666 -0.3829236,1.00304 -0.2144871,0.21449 -0.5875549,0.33538 -0.9647978,0.33538 -0.3772429,0 -0.7503107,-0.12089 -0.9647978,-0.33538 -0.21448976,-0.21448 -0.33538053,-0.58755 -0.33538053,-0.9648 0,-0.37724 0.12089077,-0.75031 0.33538053,-0.9648 0.091652,-0.0917 0.2560082,-0.15093 0.4614703,-0.17259 0.2054596,-0.0217 0.4459288,-0.007 0.6728249,0.0233 0.4537974,0.0606 0.8500798,0.18242 0.8500798,0.18242 l 0.077512,-0.25321 c 0,0 -0.4126415,-0.12762 -0.8924502,-0.19172 -0.2399056,-0.032 -0.4976865,-0.0489 -0.7358724,-0.0238 -0.2381858,0.0251 -0.4628355,0.0908 -0.62063569,0.24856 -0.28441405,0.28444 -0.41289307,0.72025 -0.41289307,1.15189 0,0.43164 0.12847902,0.86745 0.41289287,1.15186 0.28441649,0.28442 0.72023019,0.4129 1.15186879,0.4129 0.4316386,0 0.8674523,-0.12848 1.1518688,-0.4129 0.2825248,-0.28252 0.4103873,-0.70219 0.4588854,-1.1622 0.048498,-0.46001 0.016219,-0.9664 -0.047024,-1.4397 -0.1264655,-0.94662 -0.378788,-1.76424 -0.378788,-1.76424 z"
       id="path4515"
       inkscape:connector-curvature="0" />
  </g>
</svg>
