<?xml version="1.0" encoding="UTF-8" standalone="no"?>
<!-- Created with Inkscape (http://www.inkscape.org/) -->

<svg
   xmlns:dc="http://purl.org/dc/elements/1.1/"
   xmlns:cc="http://creativecommons.org/ns#"
   xmlns:rdf="http://www.w3.org/1999/02/22-rdf-syntax-ns#"
   xmlns:svg="http://www.w3.org/2000/svg"
   xmlns="http://www.w3.org/2000/svg"
   xmlns:sodipodi="http://sodipodi.sourceforge.net/DTD/sodipodi-0.dtd"
   xmlns:inkscape="http://www.inkscape.org/namespaces/inkscape"
   width="16"
   height="24"
   viewBox="0 0 4.2333332 6.3499998"
   version="1.1"
   id="svg4689"
   inkscape:version="0.92.2 (5c3e80d, 2017-08-06)"
   sodipodi:docname="0xF.svg">
  <defs
     id="defs4683" />
  <sodipodi:namedview
     id="base"
     pagecolor="#ffffff"
     bordercolor="#666666"
     borderopacity="1.0"
     inkscape:pageopacity="0.0"
     inkscape:pageshadow="2"
     inkscape:zoom="22.4"
     inkscape:cx="20.303674"
     inkscape:cy="7.9178746"
     inkscape:document-units="mm"
     inkscape:current-layer="layer1"
     showgrid="true"
     units="px"
     inkscape:window-width="1920"
     inkscape:window-height="1053"
     inkscape:window-x="0"
     inkscape:window-y="795"
     inkscape:window-maximized="1">
    <inkscape:grid
       type="xygrid"
       id="grid5249"
       spacingx="0.52916665"
       spacingy="0.52916665" />
  </sodipodi:namedview>
  <metadata
     id="metadata4686">
    <rdf:RDF>
      <cc:Work
         rdf:about="">
        <dc:format>image/svg+xml</dc:format>
        <dc:type
           rdf:resource="http://purl.org/dc/dcmitype/StillImage" />
        <dc:title></dc:title>
      </cc:Work>
    </rdf:RDF>
  </metadata>
  <g
     inkscape:label="Layer 1"
     inkscape:groupmode="layer"
     id="layer1"
     transform="translate(0,-290.65)">
    <path
       style="color:#000000;font-style:normal;font-variant:normal;font-weight:normal;font-stretch:normal;font-size:medium;line-height:normal;font-family:sans-serif;font-variant-ligatures:normal;font-variant-position:normal;font-variant-caps:normal;font-variant-numeric:normal;font-variant-alternates:normal;font-feature-settings:normal;text-indent:0;text-align:start;text-decoration:none;text-decoration-line:none;text-decoration-style:solid;text-decoration-color:#000000;letter-spacing:normal;word-spacing:normal;text-transform:none;writing-mode:lr-tb;direction:ltr;text-orientation:mixed;dominant-baseline:auto;baseline-shift:baseline;text-anchor:start;white-space:normal;shape-padding:0;clip-rule:nonzero;display:inline;overflow:visible;visibility:visible;opacity:1;isolation:auto;mix-blend-mode:normal;color-interpolation:sRGB;color-interpolation-filters:linearRGB;solid-color:#000000;solid-opacity:1;vector-effect:none;fill:#000000;fill-opacity:1;fill-rule:nonzero;stroke:none;stroke-width:0.26458254px;stroke-linecap:butt;stroke-linejoin:miter;stroke-miterlimit:4;stroke-dasharray:none;stroke-dashoffset:0;stroke-opacity:1;color-rendering:auto;image-rendering:auto;shape-rendering:auto;text-rendering:auto;enable-background:accumulate"
       d="m 2.1166666,291.44375 c -0.4667514,0 -0.9470971,0.15088 -1.1709876,0.51315 -0.1173453,0.18987 -0.1576864,0.38799 -0.1312598,0.57516 0.026432,0.18717 0.1143424,0.35972 0.2351299,0.52141 0.2137331,0.28611 0.5461609,0.54231 0.8717809,0.7984 -0.3255327,0.25604 -0.6581033,0.51236 -0.8717809,0.79841 -0.1207902,0.16169 -0.2087006,0.33424 -0.2351299,0.52141 -0.026432,0.18717 0.013917,0.38529 0.1312598,0.57516 0.2238905,0.36226 0.7042362,0.51263 1.1709876,0.51263 0.4667515,0 0.9470972,-0.15037 1.1709876,-0.51263 0.1173428,-0.18987 0.1576864,-0.38799 0.1312598,-0.57516 -0.026432,-0.18717 -0.1148582,-0.35972 -0.2356458,-0.52141 -0.2136696,-0.28604 -0.5457455,-0.54238 -0.871265,-0.79841 0.3256095,-0.25608 0.6575399,-0.5123 0.871265,-0.7984 0.1207876,-0.16169 0.2092166,-0.33424 0.2356458,-0.52141 0.026432,-0.18717 -0.013917,-0.38529 -0.1312598,-0.57516 -0.2238904,-0.36227 -0.7042361,-0.51315 -1.1709876,-0.51315 z m 0,0.26458 c 0.406109,0 0.7986395,0.14966 0.9456791,0.38758 0.090011,0.14564 0.1126146,0.27112 0.094567,0.39894 -0.018045,0.12782 -0.081949,0.26133 -0.1855179,0.39998 -0.1890686,0.25309 -0.5207529,0.51517 -0.8547285,0.77824 -0.3339755,-0.26307 -0.6656625,-0.52515 -0.8547285,-0.77824 -0.1035658,-0.13865 -0.1674706,-0.27216 -0.1855179,-0.39998 -0.018045,-0.12782 0.00455,-0.2533 0.094567,-0.39894 0.1470396,-0.23792 0.5395701,-0.38758 0.9456797,-0.38758 z m 0,2.32183 c 0.3339756,0.26307 0.6656626,0.52515 0.8547285,0.77824 0.1035685,0.13864 0.1674707,0.27216 0.1855179,0.39998 0.018045,0.12782 -0.00455,0.2533 -0.094567,0.39894 -0.1470396,0.23792 -0.5395701,0.38758 -0.9456791,0.38758 -0.4061089,0 -0.7986394,-0.14966 -0.945679,-0.38758 -0.090011,-0.14564 -0.1131332,-0.27112 -0.095083,-0.39894 0.018045,-0.12782 0.082465,-0.26134 0.1860338,-0.39998 0.1890687,-0.25309 0.520753,-0.51517 0.8547279,-0.77824 z"
       id="path4574"
       inkscape:connector-curvature="0" />
  </g>
</svg>
