<?xml version="1.0" encoding="UTF-8" standalone="no"?>
<svg
   xmlns:dc="http://purl.org/dc/elements/1.1/"
   xmlns:cc="http://creativecommons.org/ns#"
   xmlns:rdf="http://www.w3.org/1999/02/22-rdf-syntax-ns#"
   xmlns:svg="http://www.w3.org/2000/svg"
   xmlns="http://www.w3.org/2000/svg"
   xmlns:sodipodi="http://sodipodi.sourceforge.net/DTD/sodipodi-0.dtd"
   xmlns:inkscape="http://www.inkscape.org/namespaces/inkscape"
   id="svg19"
   version="1.1"
   viewBox="0 0 16 40.000001"
   height="40"
   width="16"
   sodipodi:docname="0x1.svg"
   inkscape:version="0.92.2 (5c3e80d, 2017-08-06)">
  <sodipodi:namedview
     pagecolor="#ffffff"
     bordercolor="#666666"
     borderopacity="1"
     objecttolerance="10"
     gridtolerance="10"
     guidetolerance="10"
     inkscape:pageopacity="0"
     inkscape:pageshadow="2"
     inkscape:window-width="640"
     inkscape:window-height="480"
     id="namedview8"
     showgrid="false"
     inkscape:zoom="5.9"
     inkscape:cx="8"
     inkscape:cy="20"
     inkscape:window-x="0"
     inkscape:window-y="795"
     inkscape:window-maximized="0"
     inkscape:current-layer="svg19" />
  <defs
     id="defs13" />
  <metadata
     id="metadata16">
    <rdf:RDF>
      <cc:Work
         rdf:about="">
        <dc:format>image/svg+xml</dc:format>
        <dc:type
           rdf:resource="http://purl.org/dc/dcmitype/StillImage" />
        <dc:title />
      </cc:Work>
    </rdf:RDF>
  </metadata>
  <g
     transform="translate(0,-1082.5197)"
     id="layer1">
    <path
       style="color:#000000;font-style:normal;font-variant:normal;font-weight:normal;font-stretch:normal;font-size:medium;line-height:normal;font-family:sans-serif;font-variant-ligatures:normal;font-variant-position:normal;font-variant-caps:normal;font-variant-numeric:normal;font-variant-alternates:normal;font-feature-settings:normal;text-indent:0;text-align:start;text-decoration:none;text-decoration-line:none;text-decoration-style:solid;text-decoration-color:#000000;letter-spacing:normal;word-spacing:normal;text-transform:none;writing-mode:lr-tb;direction:ltr;text-orientation:mixed;dominant-baseline:auto;baseline-shift:baseline;text-anchor:start;white-space:normal;shape-padding:0;clip-rule:nonzero;display:inline;overflow:visible;visibility:visible;opacity:1;isolation:auto;mix-blend-mode:normal;color-interpolation:sRGB;color-interpolation-filters:linearRGB;solid-color:#000000;solid-opacity:1;vector-effect:none;fill:#000000;fill-opacity:1;fill-rule:nonzero;stroke:none;stroke-width:1.5;stroke-linecap:round;stroke-linejoin:round;stroke-miterlimit:4;stroke-dasharray:none;stroke-dashoffset:0;stroke-opacity:1;color-rendering:auto;image-rendering:auto;shape-rendering:auto;text-rendering:auto;enable-background:accumulate"
       d="m 3.9785156,1101.7812 a 0.750075,0.750075 0 0 0 -0.71875,0.7383 v 14 c 0,0.75 -0.397148,1.5886 -1.0292968,2.2207 -0.6321489,0.6322 -1.47070316,1.0293 -2.22070317,1.0293 a 0.750075,0.750075 0 1 0 0,1.5 c 1.24999997,0 2.41339887,-0.6009 3.28124997,-1.4687 0.2947943,-0.2948 0.5004618,-0.6629 0.7207032,-1.0176 0.2201213,0.3543 0.4242224,0.7231 0.71875,1.0176 0.8678511,0.8678 2.0292968,1.4687 3.2792968,1.4687 a 0.750075,0.750075 0 1 0 0,-1.5 c -0.75,0 -1.5866011,-0.3971 -2.21875,-1.0293 -0.6321488,-0.6321 -1.03125,-1.4707 -1.03125,-2.2207 v -14 a 0.750075,0.750075 0 0 0 -0.78125,-0.7383 z"
       id="path3757"
       inkscape:connector-curvature="0" />
    <path
       style="color:#000000;font-style:normal;font-variant:normal;font-weight:normal;font-stretch:normal;font-size:medium;line-height:normal;font-family:sans-serif;font-variant-ligatures:normal;font-variant-position:normal;font-variant-caps:normal;font-variant-numeric:normal;font-variant-alternates:normal;font-feature-settings:normal;text-indent:0;text-align:start;text-decoration:none;text-decoration-line:none;text-decoration-style:solid;text-decoration-color:#000000;letter-spacing:normal;word-spacing:normal;text-transform:none;writing-mode:lr-tb;direction:ltr;text-orientation:mixed;dominant-baseline:auto;baseline-shift:baseline;text-anchor:start;white-space:normal;shape-padding:0;clip-rule:nonzero;display:inline;overflow:visible;visibility:visible;opacity:1;isolation:auto;mix-blend-mode:normal;color-interpolation:sRGB;color-interpolation-filters:linearRGB;solid-color:#000000;solid-opacity:1;vector-effect:none;fill:#000000;fill-opacity:1;fill-rule:nonzero;stroke:none;stroke-width:1.5;stroke-linecap:round;stroke-linejoin:miter;stroke-miterlimit:4;stroke-dasharray:none;stroke-dashoffset:0;stroke-opacity:1;color-rendering:auto;image-rendering:auto;shape-rendering:auto;text-rendering:auto;enable-background:accumulate"
       d="m 12.009766,1101.2695 c -0.9,0 -1.747817,0.508 -2.3593754,1.336 -0.6115588,0.8279 -1.0299319,1.9825 -1.1972656,3.455 -0.3218546,2.8324 0.37624,6.9323 2.681641,12.2051 -0.17658,0.1617 -0.313582,0.3126 -0.791016,0.6309 -0.6859961,0.4573 -1.5839843,0.873 -2.3339844,0.873 a 0.750075,0.750075 0 1 0 0,1.5 c 1.2500001,0 2.3520114,-0.5823 3.1660154,-1.125 0.497203,-0.3314 0.598864,-0.4577 0.833985,-0.6679 0.235039,0.2102 0.336348,0.3362 0.833984,0.6679 0.814004,0.5427 1.916016,1.125 3.166016,1.125 a 0.750075,0.750075 0 1 0 0,-1.5 c -0.75,0 -1.647989,-0.4157 -2.333985,-0.873 -0.477214,-0.3182 -0.612392,-0.4692 -0.789062,-0.6309 2.3054,-5.2728 3.003495,-9.3727 2.68164,-12.2051 -0.167333,-1.4725 -0.585706,-2.6271 -1.197265,-3.455 -0.611559,-0.828 -1.461328,-1.336 -2.361328,-1.336 z m 0,1.5 c 0.35,0 0.752183,0.1796 1.15625,0.7266 0.404066,0.547 0.766943,1.455 0.912109,2.7324 0.249138,2.1924 -0.395289,5.6732 -2.066406,9.9766 -1.671325,-4.3037 -2.3175098,-7.7841 -2.0683596,-9.9766 0.1451666,-1.2774 0.5080436,-2.1854 0.9121096,-2.7324 0.404066,-0.547 0.804297,-0.7266 1.154297,-0.7266 z"
       id="path3757-8"
       inkscape:connector-curvature="0" />
  </g>
</svg>
