<?xml version="1.0" encoding="UTF-8" standalone="no"?>
<!-- Created with Inkscape (http://www.inkscape.org/) -->

<svg
   xmlns:dc="http://purl.org/dc/elements/1.1/"
   xmlns:cc="http://creativecommons.org/ns#"
   xmlns:rdf="http://www.w3.org/1999/02/22-rdf-syntax-ns#"
   xmlns:svg="http://www.w3.org/2000/svg"
   xmlns="http://www.w3.org/2000/svg"
   xmlns:sodipodi="http://sodipodi.sourceforge.net/DTD/sodipodi-0.dtd"
   xmlns:inkscape="http://www.inkscape.org/namespaces/inkscape"
   width="16"
   height="40"
   viewBox="0 0 16 40.000001"
   version="1.1"
   id="svg19"
   inkscape:version="0.92.2 (5c3e80d, 2017-08-06)"
   sodipodi:docname="0x5.svg">
  <defs
     id="defs13" />
  <sodipodi:namedview
     id="base"
     pagecolor="#ffffff"
     bordercolor="#666666"
     borderopacity="1.0"
     inkscape:pageopacity="0.0"
     inkscape:pageshadow="2"
     inkscape:zoom="15.839192"
     inkscape:cx="14.864825"
     inkscape:cy="17.062809"
     inkscape:document-units="px"
     inkscape:current-layer="layer1"
     showgrid="true"
     units="px"
     inkscape:window-width="1920"
     inkscape:window-height="1053"
     inkscape:window-x="0"
     inkscape:window-y="795"
     inkscape:window-maximized="1">
    <inkscape:grid
       type="xygrid"
       id="grid57"
       empspacing="2" />
  </sodipodi:namedview>
  <metadata
     id="metadata16">
    <rdf:RDF>
      <cc:Work
         rdf:about="">
        <dc:format>image/svg+xml</dc:format>
        <dc:type
           rdf:resource="http://purl.org/dc/dcmitype/StillImage" />
        <dc:title />
      </cc:Work>
    </rdf:RDF>
  </metadata>
  <g
     inkscape:label="Layer 1"
     inkscape:groupmode="layer"
     id="layer1"
     transform="translate(0,-1082.5197)">
    <path
       style="color:#000000;font-style:normal;font-variant:normal;font-weight:normal;font-stretch:normal;font-size:medium;line-height:normal;font-family:sans-serif;font-variant-ligatures:normal;font-variant-position:normal;font-variant-caps:normal;font-variant-numeric:normal;font-variant-alternates:normal;font-feature-settings:normal;text-indent:0;text-align:start;text-decoration:none;text-decoration-line:none;text-decoration-style:solid;text-decoration-color:#000000;letter-spacing:normal;word-spacing:normal;text-transform:none;writing-mode:lr-tb;direction:ltr;text-orientation:mixed;dominant-baseline:auto;baseline-shift:baseline;text-anchor:start;white-space:normal;shape-padding:0;clip-rule:nonzero;display:inline;overflow:visible;visibility:visible;opacity:1;isolation:auto;mix-blend-mode:normal;color-interpolation:sRGB;color-interpolation-filters:linearRGB;solid-color:#000000;solid-opacity:1;vector-effect:none;fill:#000000;fill-opacity:1;fill-rule:nonzero;stroke:none;stroke-width:1.5;stroke-linecap:round;stroke-linejoin:miter;stroke-miterlimit:4;stroke-dasharray:none;stroke-dashoffset:0;stroke-opacity:1;color-rendering:auto;image-rendering:auto;shape-rendering:auto;text-rendering:auto;enable-background:accumulate"
       d="m 4,1101.2695 c -0.9,0 -1.7497693,0.508 -2.3613281,1.336 -0.6115589,0.8279 -1.02993196,1.9825 -1.19726565,3.455 -0.32185358,2.8324 0.37625828,6.9323 2.68164065,12.2051 -0.17667,0.1617 -0.311848,0.3127 -0.7890625,0.6309 C 1.6479882,1119.3538 0.75,1119.7695 0,1119.7695 a 0.750075,0.750075 0 1 0 0,1.5 c 1.25,0 2.3520118,-0.5823 3.1660156,-1.125 0.4972023,-0.3314 0.5988638,-0.4577 0.8339844,-0.6679 0.2351206,0.2102 0.3367821,0.3365 0.8339844,0.6679 0.8140038,0.5427 1.9160156,1.125 3.1660156,1.125 a 0.750075,0.750075 0 1 0 0,-1.5 c -0.75,0 -1.6479882,-0.4157 -2.3339844,-0.873 -0.4772145,-0.3182 -0.6123925,-0.4692 -0.7890625,-0.6309 2.3053824,-5.2728 3.0034942,-9.3727 2.6816407,-12.2051 -0.1673337,-1.4725 -0.5857068,-2.6271 -1.1972657,-3.455 C 5.7497693,1101.7775 4.9,1101.2695 4,1101.2695 Z m 0,1.5 c 0.35,0 0.7502307,0.1796 1.1542969,0.7266 0.4040661,0.547 0.766943,1.455 0.9121093,2.7324 0.2491415,2.1925 -0.3952302,5.6731 -2.0664062,9.9766 -1.671176,-4.3035 -2.3155477,-7.7841 -2.0664062,-9.9766 0.1451663,-1.2774 0.5080432,-2.1854 0.9121093,-2.7324 C 3.2497693,1102.9491 3.65,1102.7695 4,1102.7695 Z"
       id="path3757-8"
       inkscape:connector-curvature="0" />
    <path
       style="color:#000000;font-style:normal;font-variant:normal;font-weight:normal;font-stretch:normal;font-size:medium;line-height:normal;font-family:sans-serif;font-variant-ligatures:normal;font-variant-position:normal;font-variant-caps:normal;font-variant-numeric:normal;font-variant-alternates:normal;font-feature-settings:normal;text-indent:0;text-align:start;text-decoration:none;text-decoration-line:none;text-decoration-style:solid;text-decoration-color:#000000;letter-spacing:normal;word-spacing:normal;text-transform:none;writing-mode:lr-tb;direction:ltr;text-orientation:mixed;dominant-baseline:auto;baseline-shift:baseline;text-anchor:start;white-space:normal;shape-padding:0;clip-rule:nonzero;display:inline;overflow:visible;visibility:visible;opacity:1;isolation:auto;mix-blend-mode:normal;color-interpolation:sRGB;color-interpolation-filters:linearRGB;solid-color:#000000;solid-opacity:1;vector-effect:none;fill:#000000;fill-opacity:1;fill-rule:nonzero;stroke:none;stroke-width:1.5;stroke-linecap:round;stroke-linejoin:miter;stroke-miterlimit:4;stroke-dasharray:none;stroke-dashoffset:0;stroke-opacity:1;color-rendering:auto;image-rendering:auto;shape-rendering:auto;text-rendering:auto;enable-background:accumulate"
       d="m 12,1101.2695 c -0.9,0 -1.749769,0.508 -2.3613281,1.336 -0.6115589,0.8279 -1.029932,1.9825 -1.1972657,3.455 -0.3218535,2.8324 0.3762583,6.9323 2.6816408,12.2051 -0.17667,0.1617 -0.311848,0.3127 -0.789063,0.6309 C 9.6479882,1119.3538 8.75,1119.7695 8,1119.7695 a 0.750075,0.750075 0 1 0 0,1.5 c 1.25,0 2.352012,-0.5823 3.166016,-1.125 0.497202,-0.3314 0.598863,-0.4577 0.833984,-0.6679 0.235121,0.2102 0.336782,0.3365 0.833984,0.6679 0.814004,0.5427 1.916016,1.125 3.166016,1.125 a 0.750075,0.750075 0 1 0 0,-1.5 c -0.75,0 -1.647988,-0.4157 -2.333984,-0.873 -0.477215,-0.3182 -0.612393,-0.4692 -0.789063,-0.6309 2.305382,-5.2728 3.003494,-9.3727 2.681641,-12.2051 -0.167334,-1.4725 -0.585707,-2.6271 -1.197266,-3.455 C 13.749769,1101.7775 12.9,1101.2695 12,1101.2695 Z m 0,1.5 c 0.35,0 0.750231,0.1796 1.154297,0.7266 0.404066,0.547 0.766943,1.455 0.912109,2.7324 0.249142,2.1925 -0.39523,5.6731 -2.066406,9.9766 -1.671176,-4.3035 -2.3155477,-7.7841 -2.0664062,-9.9766 0.1451662,-1.2774 0.5080432,-2.1854 0.9121092,-2.7324 0.404066,-0.547 0.804297,-0.7266 1.154297,-0.7266 z"
       id="path3757-8-2"
       inkscape:connector-curvature="0" />
  </g>
</svg>
