<?xml version="1.0" encoding="UTF-8"?>
<svg xmlns="http://www.w3.org/2000/svg" xmlns:xlink="http://www.w3.org/1999/xlink" width="48pt" height="64pt" viewBox="0 0 48 64" version="1.1">
<g id="surface1">
<path style=" stroke:none;fill-rule:nonzero;fill:rgb(0%,0%,0%);fill-opacity:1;" d="M 11.9375 30.820312 C 10.742188 30.84375 9.796875 31.363281 9.78125 32 L 9.78125 54.398438 C 9.78125 55.601562 8.585938 56.941406 6.691406 57.953125 C 4.796875 58.964844 2.28125 59.601562 0.03125 59.601562 C -0.78125 59.59375 -1.535156 59.820312 -1.945312 60.195312 C -2.355469 60.570312 -2.355469 61.03125 -1.945312 61.40625 C -1.535156 61.777344 -0.78125 62.003906 0.03125 62 C 3.78125 62 7.269531 61.039062 9.875 59.648438 C 10.757812 59.179688 11.375 58.589844 12.035156 58.023438 C 12.695312 58.589844 13.308594 59.179688 14.191406 59.648438 C 16.796875 61.039062 20.28125 62 24.027344 62 C 24.839844 62.003906 25.59375 61.777344 26.003906 61.40625 C 26.414062 61.03125 26.414062 60.570312 26.003906 60.195312 C 25.59375 59.820312 24.839844 59.59375 24.027344 59.601562 C 21.777344 59.601562 19.269531 58.964844 17.375 57.953125 C 15.476562 56.941406 14.28125 55.601562 14.28125 54.398438 L 14.28125 32 C 14.269531 31.675781 14.015625 31.367188 13.574219 31.144531 C 13.132812 30.921875 12.542969 30.804688 11.9375 30.820312 Z M 11.9375 30.820312 "/>
<path style=" stroke:none;fill-rule:nonzero;fill:rgb(0%,0%,0%);fill-opacity:1;" d="M 36.03125 30 C 33.328125 30 30.785156 30.8125 28.949219 32.136719 C 27.117188 33.460938 25.863281 35.308594 25.359375 37.664062 C 24.394531 42.195312 26.488281 48.757812 33.40625 57.195312 C 32.875 57.453125 32.464844 57.695312 31.03125 58.203125 C 28.972656 58.933594 26.28125 59.601562 24.027344 59.601562 C 23.21875 59.59375 22.464844 59.820312 22.054688 60.195312 C 21.644531 60.570312 21.644531 61.03125 22.054688 61.40625 C 22.464844 61.777344 23.21875 62.003906 24.027344 62 C 27.78125 62 31.085938 61.066406 33.527344 60.199219 C 35.019531 59.667969 35.324219 59.46875 36.03125 59.132812 C 36.734375 59.46875 37.039062 59.667969 38.53125 60.199219 C 40.972656 61.066406 44.28125 62 48.03125 62 C 48.839844 62.003906 49.59375 61.777344 50.003906 61.40625 C 50.414062 61.03125 50.414062 60.570312 50.003906 60.195312 C 49.59375 59.820312 48.839844 59.59375 48.03125 59.601562 C 45.78125 59.601562 43.085938 58.933594 41.027344 58.203125 C 39.59375 57.695312 39.191406 57.453125 38.660156 57.195312 C 45.578125 48.757812 47.671875 42.195312 46.703125 37.664062 C 46.203125 35.308594 44.949219 33.460938 43.113281 32.136719 C 41.277344 30.8125 38.730469 30 36.03125 30 Z M 36.03125 32.398438 C 37.078125 32.398438 38.285156 32.6875 39.5 33.5625 C 40.710938 34.4375 41.800781 35.890625 42.234375 37.933594 C 42.980469 41.441406 41.046875 47.011719 36.035156 53.898438 C 31.019531 47.011719 29.082031 41.441406 29.828125 37.933594 C 30.265625 35.890625 31.355469 34.4375 32.566406 33.5625 C 33.777344 32.6875 34.980469 32.398438 36.03125 32.398438 Z M 36.03125 32.398438 "/>
</g>
</svg>
