<?xml version="1.0" encoding="UTF-8"?>
<svg xmlns="http://www.w3.org/2000/svg" xmlns:xlink="http://www.w3.org/1999/xlink" width="48pt" height="64pt" viewBox="0 0 48 64" version="1.1">
<g id="surface1">
<path style=" stroke:none;fill-rule:nonzero;fill:rgb(0%,0%,0%);fill-opacity:1;" d="M 11.9375 30.820312 C 10.742188 30.84375 9.796875 31.363281 9.78125 32 L 9.78125 54.398438 C 9.78125 55.601562 8.585938 56.941406 6.691406 57.953125 C 4.796875 58.964844 2.28125 59.601562 0.03125 59.601562 C -0.78125 59.59375 -1.535156 59.820312 -1.945312 60.195312 C -2.355469 60.570312 -2.355469 61.03125 -1.945312 61.40625 C -1.535156 61.777344 -0.78125 62.003906 0.03125 62 C 3.78125 62 7.269531 61.039062 9.875 59.648438 C 10.757812 59.179688 11.375 58.589844 12.035156 58.023438 C 12.695312 58.589844 13.308594 59.179688 14.191406 59.648438 C 16.796875 61.039062 20.28125 62 24.027344 62 C 24.839844 62.003906 25.59375 61.777344 26.003906 61.40625 C 26.414062 61.03125 26.414062 60.570312 26.003906 60.195312 C 25.59375 59.820312 24.839844 59.59375 24.027344 59.601562 C 21.777344 59.601562 19.269531 58.964844 17.375 57.953125 C 15.476562 56.941406 14.28125 55.601562 14.28125 54.398438 L 14.28125 32 C 14.269531 31.675781 14.015625 31.367188 13.574219 31.144531 C 13.132812 30.921875 12.542969 30.804688 11.9375 30.820312 Z M 11.9375 30.820312 "/>
<path style=" stroke:none;fill-rule:nonzero;fill:rgb(0%,0%,0%);fill-opacity:1;" d="M 35.902344 2.019531 C 34.710938 2.046875 33.765625 2.5625 33.75 3.199219 L 33.75 54.398438 C 33.75 55.601562 32.550781 56.941406 30.65625 57.953125 C 28.761719 58.964844 26.25 59.601562 24 59.601562 C 23.1875 59.59375 22.433594 59.820312 22.023438 60.195312 C 21.617188 60.570312 21.617188 61.03125 22.023438 61.40625 C 22.433594 61.777344 23.1875 62.003906 24 62 C 27.75 62 31.238281 61.039062 33.84375 59.648438 C 34.726562 59.179688 35.339844 58.589844 36 58.023438 C 36.660156 58.589844 37.273438 59.179688 38.15625 59.648438 C 40.761719 61.039062 44.25 62 48 62 C 48.8125 62.003906 49.566406 61.777344 49.976562 61.40625 C 50.382812 61.03125 50.382812 60.570312 49.976562 60.195312 C 49.566406 59.820312 48.8125 59.59375 48 59.601562 C 45.75 59.601562 43.238281 58.964844 41.34375 57.953125 C 39.449219 56.941406 38.25 55.601562 38.25 54.398438 L 38.25 3.199219 C 38.242188 2.875 37.984375 2.566406 37.542969 2.34375 C 37.101562 2.121094 36.507812 2.003906 35.902344 2.019531 Z M 35.902344 2.019531 "/>
</g>
</svg>
