<?xml version="1.0" encoding="UTF-8"?>
<svg xmlns="http://www.w3.org/2000/svg" xmlns:xlink="http://www.w3.org/1999/xlink" width="48pt" height="64pt" viewBox="0 0 48 64" version="1.1">
<g id="surface1">
<path style=" stroke:none;fill-rule:nonzero;fill:rgb(0%,0%,0%);fill-opacity:1;" d="M 12 1.199219 C 10.199219 1.199219 8.652344 1.753906 7.5 2.496094 C 6.347656 3.238281 5.425781 4.214844 4.605469 5.449219 C 2.96875 7.921875 1.792969 11.457031 1.320312 16.132812 C 0.378906 25.339844 2.328125 39.050781 9.574219 57.105469 C 9.105469 57.339844 8.558594 57.648438 7.003906 58.203125 C 4.945312 58.933594 2.25 59.601562 0 59.601562 C -0.8125 59.59375 -1.566406 59.820312 -1.976562 60.195312 C -2.382812 60.570312 -2.382812 61.03125 -1.976562 61.40625 C -1.566406 61.777344 -0.8125 62.003906 0 62 C 3.75 62 7.054688 61.066406 9.5 60.199219 C 10.988281 59.667969 11.292969 59.46875 12 59.132812 C 12.707031 59.46875 13.011719 59.667969 14.503906 60.199219 C 16.945312 61.066406 20.25 62 24 62 C 24.8125 62.003906 25.566406 61.777344 25.976562 61.40625 C 26.382812 61.03125 26.382812 60.570312 25.976562 60.195312 C 25.566406 59.820312 24.8125 59.59375 24 59.601562 C 21.75 59.601562 19.054688 58.933594 17 58.203125 C 15.441406 57.648438 14.894531 57.339844 14.425781 57.105469 C 21.671875 39.050781 23.621094 25.339844 22.683594 16.132812 C 22.207031 11.457031 21.03125 7.921875 19.394531 5.449219 C 18.574219 4.214844 17.652344 3.238281 16.5 2.496094 C 15.347656 1.753906 13.800781 1.199219 12 1.199219 Z M 12 3.601562 C 12.074219 3.601562 12.402344 3.617188 13.039062 4.027344 C 13.671875 4.4375 14.449219 5.1875 15.152344 6.25 C 16.5625 8.375 17.730469 11.742188 18.195312 16.265625 C 18.976562 23.960938 16.972656 35.753906 12 50.160156 C 7.027344 35.753906 5.023438 23.960938 5.808594 16.265625 C 6.269531 11.742188 7.4375 8.375 8.847656 6.25 C 9.550781 5.1875 10.328125 4.4375 10.964844 4.027344 C 11.597656 3.617188 11.925781 3.601562 12 3.601562 Z M 12 3.601562 "/>
<path style=" stroke:none;fill-rule:nonzero;fill:rgb(0%,0%,0%);fill-opacity:1;" d="M 36 30 C 33.300781 30 30.75 30.8125 28.914062 32.136719 C 27.082031 33.460938 25.828125 35.308594 25.324219 37.664062 C 24.359375 42.195312 26.453125 48.757812 33.371094 57.195312 C 32.839844 57.453125 32.433594 57.695312 31 58.203125 C 28.945312 58.933594 26.25 59.601562 24 59.601562 C 23.1875 59.59375 22.433594 59.820312 22.023438 60.195312 C 21.617188 60.570312 21.617188 61.03125 22.023438 61.40625 C 22.433594 61.777344 23.1875 62.003906 24 62 C 27.75 62 31.054688 61.066406 33.5 60.199219 C 34.988281 59.667969 35.292969 59.46875 36 59.132812 C 36.707031 59.46875 37.011719 59.667969 38.5 60.199219 C 40.945312 61.066406 44.25 62 48 62 C 48.8125 62.003906 49.566406 61.777344 49.976562 61.40625 C 50.382812 61.03125 50.382812 60.570312 49.976562 60.195312 C 49.566406 59.820312 48.8125 59.59375 48 59.601562 C 45.75 59.601562 43.054688 58.933594 41 58.203125 C 39.566406 57.695312 39.160156 57.453125 38.628906 57.195312 C 45.546875 48.757812 47.640625 42.195312 46.675781 37.664062 C 46.171875 35.308594 44.917969 33.460938 43.082031 32.136719 C 41.25 30.8125 38.699219 30 36 30 Z M 36 32.398438 C 37.050781 32.398438 38.25 32.6875 39.460938 33.5625 C 40.675781 34.4375 41.765625 35.890625 42.199219 37.933594 C 42.945312 41.441406 41.011719 47.011719 36 53.898438 C 30.988281 47.011719 29.054688 41.441406 29.800781 37.933594 C 30.234375 35.890625 31.324219 34.4375 32.535156 33.5625 C 33.75 32.6875 34.949219 32.398438 36 32.398438 Z M 36 32.398438 "/>
</g>
</svg>
