<?xml version="1.0" encoding="UTF-8"?>
<svg xmlns="http://www.w3.org/2000/svg" xmlns:xlink="http://www.w3.org/1999/xlink" width="48pt" height="64pt" viewBox="0 0 48 64" version="1.1">
<g id="surface1">
<path style=" stroke:none;fill-rule:nonzero;fill:rgb(0%,0%,0%);fill-opacity:1;" d="M 12 1.199219 C 10.199219 1.199219 8.652344 1.753906 7.5 2.496094 C 6.347656 3.238281 5.425781 4.214844 4.605469 5.449219 C 2.96875 7.921875 1.792969 11.457031 1.320312 16.132812 C 0.378906 25.339844 2.328125 39.050781 9.574219 57.105469 C 9.105469 57.339844 8.558594 57.648438 7.003906 58.203125 C 4.945312 58.933594 2.25 59.601562 0 59.601562 C -0.8125 59.59375 -1.566406 59.820312 -1.976562 60.195312 C -2.382812 60.570312 -2.382812 61.03125 -1.976562 61.40625 C -1.566406 61.777344 -0.8125 62.003906 0 62 C 3.75 62 7.054688 61.066406 9.5 60.199219 C 10.988281 59.667969 11.292969 59.46875 12 59.132812 C 12.707031 59.46875 13.011719 59.667969 14.503906 60.199219 C 16.945312 61.066406 20.25 62 24 62 C 24.8125 62.003906 25.566406 61.777344 25.976562 61.40625 C 26.382812 61.03125 26.382812 60.570312 25.976562 60.195312 C 25.566406 59.820312 24.8125 59.59375 24 59.601562 C 21.75 59.601562 19.054688 58.933594 17 58.203125 C 15.441406 57.648438 14.894531 57.339844 14.425781 57.105469 C 21.671875 39.050781 23.621094 25.339844 22.683594 16.132812 C 22.207031 11.457031 21.03125 7.921875 19.394531 5.449219 C 18.574219 4.214844 17.652344 3.238281 16.5 2.496094 C 15.347656 1.753906 13.800781 1.199219 12 1.199219 Z M 12 3.601562 C 12.074219 3.601562 12.402344 3.617188 13.039062 4.027344 C 13.671875 4.4375 14.449219 5.1875 15.152344 6.25 C 16.5625 8.375 17.730469 11.742188 18.195312 16.265625 C 18.976562 23.960938 16.972656 35.753906 12 50.160156 C 7.027344 35.753906 5.023438 23.960938 5.808594 16.265625 C 6.269531 11.742188 7.4375 8.375 8.847656 6.25 C 9.550781 5.1875 10.328125 4.4375 10.964844 4.027344 C 11.597656 3.617188 11.925781 3.601562 12 3.601562 Z M 12 3.601562 "/>
<path style=" stroke:none;fill-rule:nonzero;fill:rgb(0%,0%,0%);fill-opacity:1;" d="M 35.902344 2.019531 C 34.710938 2.046875 33.765625 2.5625 33.75 3.199219 L 33.75 54.398438 C 33.75 55.601562 32.550781 56.941406 30.65625 57.953125 C 28.761719 58.964844 26.25 59.601562 24 59.601562 C 23.1875 59.59375 22.433594 59.820312 22.023438 60.195312 C 21.617188 60.570312 21.617188 61.03125 22.023438 61.40625 C 22.433594 61.777344 23.1875 62.003906 24 62 C 27.75 62 31.238281 61.039062 33.84375 59.648438 C 34.726562 59.179688 35.339844 58.589844 36 58.023438 C 36.660156 58.589844 37.273438 59.179688 38.15625 59.648438 C 40.761719 61.039062 44.25 62 48 62 C 48.8125 62.003906 49.566406 61.777344 49.976562 61.40625 C 50.382812 61.03125 50.382812 60.570312 49.976562 60.195312 C 49.566406 59.820312 48.8125 59.59375 48 59.601562 C 45.75 59.601562 43.238281 58.964844 41.34375 57.953125 C 39.449219 56.941406 38.25 55.601562 38.25 54.398438 L 38.25 3.199219 C 38.242188 2.875 37.984375 2.566406 37.542969 2.34375 C 37.101562 2.121094 36.507812 2.003906 35.902344 2.019531 Z M 35.902344 2.019531 "/>
</g>
</svg>
