<?xml version="1.0" encoding="UTF-8"?>
<svg xmlns="http://www.w3.org/2000/svg" xmlns:xlink="http://www.w3.org/1999/xlink" width="48pt" height="64pt" viewBox="0 0 48 64" version="1.1">
<g id="surface1">
<path style=" stroke:none;fill-rule:nonzero;fill:rgb(0%,0%,0%);fill-opacity:1;" d="M 11.9375 30.820312 C 10.742188 30.84375 9.796875 31.363281 9.78125 32 L 9.78125 54.398438 C 9.78125 55.601562 8.585938 56.941406 6.691406 57.953125 C 4.796875 58.964844 2.28125 59.601562 0.03125 59.601562 C -0.78125 59.59375 -1.535156 59.820312 -1.945312 60.195312 C -2.355469 60.570312 -2.355469 61.03125 -1.945312 61.40625 C -1.535156 61.777344 -0.78125 62.003906 0.03125 62 C 3.78125 62 7.269531 61.039062 9.875 59.648438 C 10.757812 59.179688 11.375 58.589844 12.035156 58.023438 C 12.695312 58.589844 13.308594 59.179688 14.191406 59.648438 C 16.796875 61.039062 20.28125 62 24.027344 62 C 24.839844 62.003906 25.59375 61.777344 26.003906 61.40625 C 26.414062 61.03125 26.414062 60.570312 26.003906 60.195312 C 25.59375 59.820312 24.839844 59.59375 24.027344 59.601562 C 21.777344 59.601562 19.269531 58.964844 17.375 57.953125 C 15.476562 56.941406 14.28125 55.601562 14.28125 54.398438 L 14.28125 32 C 14.269531 31.675781 14.015625 31.367188 13.574219 31.144531 C 13.132812 30.921875 12.542969 30.804688 11.9375 30.820312 Z M 11.9375 30.820312 "/>
<path style=" stroke:none;fill-rule:nonzero;fill:rgb(0%,0%,0%);fill-opacity:1;" d="M 36 1.199219 C 34.199219 1.199219 32.652344 1.753906 31.5 2.496094 C 30.347656 3.238281 29.425781 4.214844 28.605469 5.449219 C 26.96875 7.921875 25.792969 11.457031 25.316406 16.132812 C 24.378906 25.339844 26.328125 39.050781 33.574219 57.105469 C 33.105469 57.339844 32.558594 57.648438 31 58.203125 C 28.945312 58.933594 26.25 59.601562 24 59.601562 C 23.1875 59.59375 22.433594 59.820312 22.023438 60.195312 C 21.617188 60.570312 21.617188 61.03125 22.023438 61.40625 C 22.433594 61.777344 23.1875 62.003906 24 62 C 27.75 62 31.054688 61.066406 33.5 60.199219 C 34.988281 59.667969 35.292969 59.46875 36 59.132812 C 36.707031 59.46875 37.011719 59.667969 38.5 60.199219 C 40.945312 61.066406 44.25 62 48 62 C 48.8125 62.003906 49.566406 61.777344 49.976562 61.40625 C 50.382812 61.03125 50.382812 60.570312 49.976562 60.195312 C 49.566406 59.820312 48.8125 59.59375 48 59.601562 C 45.75 59.601562 43.054688 58.933594 41 58.203125 C 39.441406 57.648438 38.894531 57.339844 38.425781 57.105469 C 45.671875 39.050781 47.621094 25.339844 46.679688 16.132812 C 46.207031 11.457031 45.03125 7.921875 43.394531 5.449219 C 42.574219 4.214844 41.652344 3.238281 40.5 2.496094 C 39.347656 1.753906 37.800781 1.199219 36 1.199219 Z M 36 3.601562 C 36.074219 3.601562 36.402344 3.617188 37.035156 4.027344 C 37.671875 4.4375 38.449219 5.1875 39.152344 6.25 C 40.5625 8.375 41.730469 11.742188 42.191406 16.265625 C 42.976562 23.960938 40.972656 35.753906 36 50.160156 C 31.027344 35.753906 29.023438 23.960938 29.804688 16.265625 C 30.269531 11.742188 31.4375 8.375 32.847656 6.25 C 33.550781 5.1875 34.328125 4.4375 34.964844 4.027344 C 35.597656 3.617188 35.925781 3.601562 36 3.601562 Z M 36 3.601562 "/>
</g>
</svg>
