<?xml version="1.0" encoding="UTF-8"?>
<svg xmlns="http://www.w3.org/2000/svg" xmlns:xlink="http://www.w3.org/1999/xlink" width="48pt" height="64pt" viewBox="0 0 48 64" version="1.1">
<g id="surface1">
<path style=" stroke:none;fill-rule:nonzero;fill:rgb(0%,0%,0%);fill-opacity:1;" d="M 12 1.199219 C 10.199219 1.199219 8.652344 1.753906 7.5 2.496094 C 6.347656 3.238281 5.425781 4.214844 4.605469 5.449219 C 2.96875 7.921875 1.792969 11.457031 1.320312 16.132812 C 0.378906 25.339844 2.328125 39.050781 9.574219 57.105469 C 9.105469 57.339844 8.558594 57.648438 7.003906 58.203125 C 4.945312 58.933594 2.25 59.601562 0 59.601562 C -0.8125 59.59375 -1.566406 59.820312 -1.976562 60.195312 C -2.382812 60.570312 -2.382812 61.03125 -1.976562 61.40625 C -1.566406 61.777344 -0.8125 62.003906 0 62 C 3.75 62 7.054688 61.066406 9.5 60.199219 C 10.988281 59.667969 11.292969 59.46875 12 59.132812 C 12.707031 59.46875 13.011719 59.667969 14.503906 60.199219 C 16.945312 61.066406 20.25 62 24 62 C 24.8125 62.003906 25.566406 61.777344 25.976562 61.40625 C 26.382812 61.03125 26.382812 60.570312 25.976562 60.195312 C 25.566406 59.820312 24.8125 59.59375 24 59.601562 C 21.75 59.601562 19.054688 58.933594 17 58.203125 C 15.441406 57.648438 14.894531 57.339844 14.425781 57.105469 C 21.671875 39.050781 23.621094 25.339844 22.683594 16.132812 C 22.207031 11.457031 21.03125 7.921875 19.394531 5.449219 C 18.574219 4.214844 17.652344 3.238281 16.5 2.496094 C 15.347656 1.753906 13.800781 1.199219 12 1.199219 Z M 12 3.601562 C 12.074219 3.601562 12.402344 3.617188 13.039062 4.027344 C 13.671875 4.4375 14.449219 5.1875 15.152344 6.25 C 16.5625 8.375 17.730469 11.742188 18.195312 16.265625 C 18.976562 23.960938 16.972656 35.753906 12 50.160156 C 7.027344 35.753906 5.023438 23.960938 5.808594 16.265625 C 6.269531 11.742188 7.4375 8.375 8.847656 6.25 C 9.550781 5.1875 10.328125 4.4375 10.964844 4.027344 C 11.597656 3.617188 11.925781 3.601562 12 3.601562 Z M 12 3.601562 "/>
<path style=" stroke:none;fill-rule:nonzero;fill:rgb(0%,0%,0%);fill-opacity:1;" d="M 36 1.199219 C 34.199219 1.199219 32.652344 1.753906 31.5 2.496094 C 30.347656 3.238281 29.425781 4.214844 28.605469 5.449219 C 26.96875 7.921875 25.792969 11.457031 25.316406 16.132812 C 24.378906 25.339844 26.328125 39.050781 33.574219 57.105469 C 33.105469 57.339844 32.558594 57.648438 31 58.203125 C 28.945312 58.933594 26.25 59.601562 24 59.601562 C 23.1875 59.59375 22.433594 59.820312 22.023438 60.195312 C 21.617188 60.570312 21.617188 61.03125 22.023438 61.40625 C 22.433594 61.777344 23.1875 62.003906 24 62 C 27.75 62 31.054688 61.066406 33.5 60.199219 C 34.988281 59.667969 35.292969 59.46875 36 59.132812 C 36.707031 59.46875 37.011719 59.667969 38.5 60.199219 C 40.945312 61.066406 44.25 62 48 62 C 48.8125 62.003906 49.566406 61.777344 49.976562 61.40625 C 50.382812 61.03125 50.382812 60.570312 49.976562 60.195312 C 49.566406 59.820312 48.8125 59.59375 48 59.601562 C 45.75 59.601562 43.054688 58.933594 41 58.203125 C 39.441406 57.648438 38.894531 57.339844 38.425781 57.105469 C 45.671875 39.050781 47.621094 25.339844 46.679688 16.132812 C 46.207031 11.457031 45.03125 7.921875 43.394531 5.449219 C 42.574219 4.214844 41.652344 3.238281 40.5 2.496094 C 39.347656 1.753906 37.800781 1.199219 36 1.199219 Z M 36 3.601562 C 36.074219 3.601562 36.402344 3.617188 37.035156 4.027344 C 37.671875 4.4375 38.449219 5.1875 39.152344 6.25 C 40.5625 8.375 41.730469 11.742188 42.191406 16.265625 C 42.976562 23.960938 40.972656 35.753906 36 50.160156 C 31.027344 35.753906 29.023438 23.960938 29.804688 16.265625 C 30.269531 11.742188 31.4375 8.375 32.847656 6.25 C 33.550781 5.1875 34.328125 4.4375 34.964844 4.027344 C 35.597656 3.617188 35.925781 3.601562 36 3.601562 Z M 36 3.601562 "/>
</g>
</svg>
