<?xml version="1.0" encoding="UTF-8" standalone="no"?>
<!-- Created with Inkscape (http://www.inkscape.org/) -->

<svg
   xmlns:dc="http://purl.org/dc/elements/1.1/"
   xmlns:cc="http://creativecommons.org/ns#"
   xmlns:rdf="http://www.w3.org/1999/02/22-rdf-syntax-ns#"
   xmlns:svg="http://www.w3.org/2000/svg"
   xmlns="http://www.w3.org/2000/svg"
   xmlns:sodipodi="http://sodipodi.sourceforge.net/DTD/sodipodi-0.dtd"
   xmlns:inkscape="http://www.inkscape.org/namespaces/inkscape"
   width="16"
   height="24"
   viewBox="0 0 4.2333332 6.3499998"
   version="1.1"
   id="svg4689"
   inkscape:version="0.92.2 (5c3e80d, 2017-08-06)"
   sodipodi:docname="0xA0 C.svg">
  <defs
     id="defs4683" />
  <sodipodi:namedview
     id="base"
     pagecolor="#ffffff"
     bordercolor="#666666"
     borderopacity="1.0"
     inkscape:pageopacity="0.0"
     inkscape:pageshadow="2"
     inkscape:zoom="22.4"
     inkscape:cx="20.303674"
     inkscape:cy="7.9178746"
     inkscape:document-units="mm"
     inkscape:current-layer="layer1"
     showgrid="true"
     units="px"
     inkscape:window-width="1920"
     inkscape:window-height="1053"
     inkscape:window-x="0"
     inkscape:window-y="795"
     inkscape:window-maximized="1">
    <inkscape:grid
       type="xygrid"
       id="grid5249"
       spacingx="0.52916665"
       spacingy="0.52916665" />
  </sodipodi:namedview>
  <metadata
     id="metadata4686">
    <rdf:RDF>
      <cc:Work
         rdf:about="">
        <dc:format>image/svg+xml</dc:format>
        <dc:type
           rdf:resource="http://purl.org/dc/dcmitype/StillImage" />
        <dc:title></dc:title>
      </cc:Work>
    </rdf:RDF>
  </metadata>
  <g
     inkscape:label="Layer 1"
     inkscape:groupmode="layer"
     id="layer1"
     transform="translate(0,-290.65)">
    <path
       style="color:#000000;font-style:normal;font-variant:normal;font-weight:normal;font-stretch:normal;font-size:medium;line-height:normal;font-family:sans-serif;font-variant-ligatures:normal;font-variant-position:normal;font-variant-caps:normal;font-variant-numeric:normal;font-variant-alternates:normal;font-feature-settings:normal;text-indent:0;text-align:start;text-decoration:none;text-decoration-line:none;text-decoration-style:solid;text-decoration-color:#000000;letter-spacing:normal;word-spacing:normal;text-transform:none;writing-mode:lr-tb;direction:ltr;text-orientation:mixed;dominant-baseline:auto;baseline-shift:baseline;text-anchor:start;white-space:normal;shape-padding:0;clip-rule:nonzero;display:inline;overflow:visible;visibility:visible;opacity:1;isolation:auto;mix-blend-mode:normal;color-interpolation:sRGB;color-interpolation-filters:linearRGB;solid-color:#000000;solid-opacity:1;vector-effect:none;fill:#000000;fill-opacity:1;fill-rule:nonzero;stroke:none;stroke-width:0.26458332;stroke-linecap:butt;stroke-linejoin:miter;stroke-miterlimit:4;stroke-dasharray:none;stroke-dashoffset:0;stroke-opacity:1;color-rendering:auto;image-rendering:auto;shape-rendering:auto;text-rendering:auto;enable-background:accumulate"
       d="m 2.1166666,291.17913 c -0.2381859,0.0251 -0.4628357,0.0908 -0.6206358,0.24856 -0.53386563,0.53387 -0.78703223,1.37412 -0.78702963,2.2102 0,0.83608 0.253164,1.67634 0.78702963,2.2102 0.1578001,0.1578 0.3824499,0.22346 0.6206358,0.24857 0.2381858,0.0251 0.4959667,0.008 0.7358723,-0.0238 0.4798087,-0.0641 0.8924502,-0.19172 0.8924502,-0.19172 l -0.077512,-0.25321 c 0,0 -0.3962824,0.12179 -0.8500798,0.18241 -0.2268961,0.0303 -0.4673653,0.0449 -0.6728248,0.0233 -0.2054622,-0.0217 -0.3698188,-0.0809 -0.4614704,-0.1726 -0.4639416,-0.46394 -0.70951723,-1.24145 -0.70951723,-2.02313 0,-0.78168 0.24557563,-1.55919 0.70951723,-2.02313 0.091652,-0.0917 0.2560082,-0.15094 0.4614704,-0.1726 0.2054595,-0.0217 0.4459287,-0.007 0.6728248,0.0233 0.4537974,0.0606 0.8500798,0.18242 0.8500798,0.18242 l 0.077512,-0.25321 c 0,0 -0.4126415,-0.12762 -0.8924502,-0.19172 -0.2399056,-0.032 -0.4976865,-0.0489 -0.7358723,-0.0238 z"
       id="path4505-7"
       inkscape:connector-curvature="0" />
  </g>
</svg>
