<?xml version="1.0" encoding="UTF-8" standalone="no"?>
<!-- Created with Inkscape (http://www.inkscape.org/) -->

<svg
   xmlns:dc="http://purl.org/dc/elements/1.1/"
   xmlns:cc="http://creativecommons.org/ns#"
   xmlns:rdf="http://www.w3.org/1999/02/22-rdf-syntax-ns#"
   xmlns:svg="http://www.w3.org/2000/svg"
   xmlns="http://www.w3.org/2000/svg"
   xmlns:sodipodi="http://sodipodi.sourceforge.net/DTD/sodipodi-0.dtd"
   xmlns:inkscape="http://www.inkscape.org/namespaces/inkscape"
   width="16"
   height="24"
   viewBox="0 0 4.2333332 6.3499998"
   version="1.1"
   id="svg4689"
   inkscape:version="0.92.2 (5c3e80d, 2017-08-06)"
   sodipodi:docname="0xB.svg">
  <defs
     id="defs4683" />
  <sodipodi:namedview
     id="base"
     pagecolor="#ffffff"
     bordercolor="#666666"
     borderopacity="1.0"
     inkscape:pageopacity="0.0"
     inkscape:pageshadow="2"
     inkscape:zoom="22.4"
     inkscape:cx="20.303674"
     inkscape:cy="7.9178746"
     inkscape:document-units="mm"
     inkscape:current-layer="layer1"
     showgrid="true"
     units="px"
     inkscape:window-width="1920"
     inkscape:window-height="1053"
     inkscape:window-x="0"
     inkscape:window-y="795"
     inkscape:window-maximized="1">
    <inkscape:grid
       type="xygrid"
       id="grid5249"
       spacingx="0.52916665"
       spacingy="0.52916665" />
  </sodipodi:namedview>
  <metadata
     id="metadata4686">
    <rdf:RDF>
      <cc:Work
         rdf:about="">
        <dc:format>image/svg+xml</dc:format>
        <dc:type
           rdf:resource="http://purl.org/dc/dcmitype/StillImage" />
        <dc:title></dc:title>
      </cc:Work>
    </rdf:RDF>
  </metadata>
  <g
     inkscape:label="Layer 1"
     inkscape:groupmode="layer"
     id="layer1"
     transform="translate(0,-290.65)">
    <path
       style="color:#000000;font-style:normal;font-variant:normal;font-weight:normal;font-stretch:normal;font-size:medium;line-height:normal;font-family:sans-serif;font-variant-ligatures:normal;font-variant-position:normal;font-variant-caps:normal;font-variant-numeric:normal;font-variant-alternates:normal;font-feature-settings:normal;text-indent:0;text-align:start;text-decoration:none;text-decoration-line:none;text-decoration-style:solid;text-decoration-color:#000000;letter-spacing:normal;word-spacing:normal;text-transform:none;writing-mode:lr-tb;direction:ltr;text-orientation:mixed;dominant-baseline:auto;baseline-shift:baseline;text-anchor:start;white-space:normal;shape-padding:0;clip-rule:nonzero;display:inline;overflow:visible;visibility:visible;opacity:1;isolation:auto;mix-blend-mode:normal;color-interpolation:sRGB;color-interpolation-filters:linearRGB;solid-color:#000000;solid-opacity:1;vector-effect:none;fill:#000000;fill-opacity:1;fill-rule:nonzero;stroke:none;stroke-width:0.26458332;stroke-linecap:butt;stroke-linejoin:miter;stroke-miterlimit:4;stroke-dasharray:none;stroke-dashoffset:0;stroke-opacity:1;color-rendering:auto;image-rendering:auto;shape-rendering:auto;text-rendering:auto;enable-background:accumulate"
       d="m 0.8929691,291.54242 c 0,0 -0.2523226,0.81762 -0.3787881,1.76423 -0.06323,0.47331 -0.095522,0.9797 -0.047024,1.43971 0.048498,0.46001 0.1763607,0.87968 0.4588854,1.1622 0.2844192,0.28442 0.7202303,0.4129 1.1518689,0.4129 0.4316382,0 0.8674519,-0.12848 1.1518685,-0.4129 0.2844165,-0.28441 0.4128929,-0.72023 0.4128929,-1.15187 0,-0.43163 -0.1284764,-0.86745 -0.4128929,-1.15186 -0.1578003,-0.1578 -0.38245,-0.22346 -0.6206359,-0.24857 -0.2381858,-0.0251 -0.4959667,-0.008 -0.7358724,0.0238 -0.4798086,0.0641 -0.8924502,0.19172 -0.8924502,0.19172 l 0.077512,0.25322 c 0,0 0.3962824,-0.12179 0.8500799,-0.18242 0.2268961,-0.0303 0.4673653,-0.0449 0.6728248,-0.0233 0.2054622,0.0217 0.3698187,0.081 0.4614704,0.1726 0.2144899,0.21449 0.3353806,0.58756 0.3353806,0.9648 0,0.37724 -0.1208907,0.75031 -0.3353806,0.9648 -0.2144871,0.21449 -0.5875549,0.33538 -0.9647978,0.33538 -0.3772427,0 -0.7503105,-0.12089 -0.9647976,-0.33538 -0.2163789,-0.21638 -0.3378756,-0.57576 -0.3829236,-1.00304 -0.045048,-0.42728 -0.014975,-0.91636 0.046509,-1.37666 0.122989,-0.9206 0.369488,-1.72134 0.369488,-1.72134 z"
       id="path4515-6-1"
       inkscape:connector-curvature="0" />
  </g>
</svg>
