<?xml version="1.0" encoding="UTF-8" standalone="no"?>
<!-- Created with Inkscape (http://www.inkscape.org/) -->

<svg
   xmlns:dc="http://purl.org/dc/elements/1.1/"
   xmlns:cc="http://creativecommons.org/ns#"
   xmlns:rdf="http://www.w3.org/1999/02/22-rdf-syntax-ns#"
   xmlns:svg="http://www.w3.org/2000/svg"
   xmlns="http://www.w3.org/2000/svg"
   xmlns:sodipodi="http://sodipodi.sourceforge.net/DTD/sodipodi-0.dtd"
   xmlns:inkscape="http://www.inkscape.org/namespaces/inkscape"
   width="16"
   height="24"
   viewBox="0 0 4.2333332 6.3499998"
   version="1.1"
   id="svg4689"
   inkscape:version="0.92.2 (5c3e80d, 2017-08-06)"
   sodipodi:docname="0xD.svg">
  <defs
     id="defs4683" />
  <sodipodi:namedview
     id="base"
     pagecolor="#ffffff"
     bordercolor="#666666"
     borderopacity="1.0"
     inkscape:pageopacity="0.0"
     inkscape:pageshadow="2"
     inkscape:zoom="22.4"
     inkscape:cx="20.303674"
     inkscape:cy="7.9178746"
     inkscape:document-units="mm"
     inkscape:current-layer="layer1"
     showgrid="true"
     units="px"
     inkscape:window-width="1920"
     inkscape:window-height="1053"
     inkscape:window-x="0"
     inkscape:window-y="795"
     inkscape:window-maximized="1">
    <inkscape:grid
       type="xygrid"
       id="grid5249"
       spacingx="0.52916665"
       spacingy="0.52916665" />
  </sodipodi:namedview>
  <metadata
     id="metadata4686">
    <rdf:RDF>
      <cc:Work
         rdf:about="">
        <dc:format>image/svg+xml</dc:format>
        <dc:type
           rdf:resource="http://purl.org/dc/dcmitype/StillImage" />
        <dc:title></dc:title>
      </cc:Work>
    </rdf:RDF>
  </metadata>
  <g
     inkscape:label="Layer 1"
     inkscape:groupmode="layer"
     id="layer1"
     transform="translate(0,-290.65)">
    <path
       style="color:#000000;font-style:normal;font-variant:normal;font-weight:normal;font-stretch:normal;font-size:medium;line-height:normal;font-family:sans-serif;font-variant-ligatures:normal;font-variant-position:normal;font-variant-caps:normal;font-variant-numeric:normal;font-variant-alternates:normal;font-feature-settings:normal;text-indent:0;text-align:start;text-decoration:none;text-decoration-line:none;text-decoration-style:solid;text-decoration-color:#000000;letter-spacing:normal;word-spacing:normal;text-transform:none;writing-mode:lr-tb;direction:ltr;text-orientation:mixed;dominant-baseline:auto;baseline-shift:baseline;text-anchor:start;white-space:normal;shape-padding:0;clip-rule:nonzero;display:inline;overflow:visible;visibility:visible;opacity:1;isolation:auto;mix-blend-mode:normal;color-interpolation:sRGB;color-interpolation-filters:linearRGB;solid-color:#000000;solid-opacity:1;vector-effect:none;fill:#000000;fill-opacity:1;fill-rule:nonzero;stroke:none;stroke-width:0.26458332;stroke-linecap:butt;stroke-linejoin:miter;stroke-miterlimit:4;stroke-dasharray:none;stroke-dashoffset:0;stroke-opacity:1;color-rendering:auto;image-rendering:auto;shape-rendering:auto;text-rendering:auto;enable-background:accumulate"
       d="m 2.1554224,291.32802 c -0.4316386,0 -0.8674523,0.12899 -1.1518688,0.41341 -0.2844165,0.28442 -0.4128929,0.72023 -0.4128929,1.15187 0,0.43164 0.1284764,0.86745 0.4128929,1.15187 0.1578001,0.1578 0.3824499,0.22293 0.6206357,0.24804 0.2381859,0.0251 0.4959668,0.008 0.7358724,-0.0238 0.4798087,-0.0641 0.8924502,-0.19172 0.8924502,-0.19172 L 3.1749999,293.825 c 0,0 -0.3962824,0.12179 -0.8500798,0.18241 -0.2268961,0.0303 -0.4673653,0.0444 -0.6728249,0.0227 -0.2054621,-0.0217 -0.3698187,-0.0804 -0.4614703,-0.17208 -0.2144898,-0.21449 -0.3353806,-0.58756 -0.3353806,-0.9648 0,-0.37724 0.1208908,-0.75031 0.3353806,-0.9648 0.2144871,-0.21449 0.5875549,-0.3359 0.9647978,-0.3359 0.3772429,0 0.7503107,0.12141 0.9647978,0.3359 0.2163789,0.21638 0.3378756,0.57524 0.3829236,1.00252 0.045048,0.42729 0.014975,0.91688 -0.046509,1.37718 -0.1229889,0.9206 -0.369488,1.72083 -0.369488,1.72083 l 0.2532169,0.078 c 0,0 0.2523251,-0.81711 0.378788,-1.76372 0.06323,-0.47331 0.095523,-0.98021 0.047024,-1.44022 -0.048498,-0.46001 -0.1763633,-0.87916 -0.4588854,-1.16169 -0.2844185,-0.28432 -0.7202296,-0.41331 -1.1518682,-0.41331 z"
       id="path4515-62"
       inkscape:connector-curvature="0" />
  </g>
</svg>
