<?xml version="1.0" encoding="UTF-8"?>
<svg xmlns="http://www.w3.org/2000/svg" xmlns:xlink="http://www.w3.org/1999/xlink" width="48pt" height="64pt" viewBox="0 0 48 64" version="1.1">
<g id="surface1">
<path style=" stroke:none;fill-rule:nonzero;fill:rgb(0%,0%,0%);fill-opacity:1;" d="M 11.902344 2.019531 C 10.710938 2.046875 9.765625 2.5625 9.75 3.199219 L 9.75 54.398438 C 9.75 55.601562 8.550781 56.941406 6.65625 57.953125 C 4.761719 58.964844 2.25 59.601562 0 59.601562 C -0.8125 59.59375 -1.566406 59.820312 -1.976562 60.195312 C -2.382812 60.570312 -2.382812 61.03125 -1.976562 61.40625 C -1.566406 61.777344 -0.8125 62.003906 0 62 C 3.75 62 7.238281 61.039062 9.84375 59.648438 C 10.726562 59.179688 11.339844 58.589844 12 58.023438 C 12.660156 58.589844 13.273438 59.179688 14.15625 59.648438 C 16.761719 61.039062 20.25 62 24 62 C 24.8125 62.003906 25.566406 61.777344 25.976562 61.40625 C 26.382812 61.03125 26.382812 60.570312 25.976562 60.195312 C 25.566406 59.820312 24.8125 59.59375 24 59.601562 C 21.75 59.601562 19.238281 58.964844 17.34375 57.953125 C 15.449219 56.941406 14.25 55.601562 14.25 54.398438 L 14.25 3.199219 C 14.242188 2.875 13.984375 2.566406 13.542969 2.34375 C 13.101562 2.121094 12.507812 2.003906 11.902344 2.019531 Z M 11.902344 2.019531 "/>
<path style=" stroke:none;fill-rule:nonzero;fill:rgb(0%,0%,0%);fill-opacity:1;" d="M 36 1.199219 C 34.199219 1.199219 32.652344 1.753906 31.5 2.496094 C 30.347656 3.238281 29.425781 4.214844 28.605469 5.449219 C 26.96875 7.921875 25.792969 11.457031 25.316406 16.132812 C 24.378906 25.339844 26.328125 39.050781 33.574219 57.105469 C 33.105469 57.339844 32.558594 57.648438 31 58.203125 C 28.945312 58.933594 26.25 59.601562 24 59.601562 C 23.1875 59.59375 22.433594 59.820312 22.023438 60.195312 C 21.617188 60.570312 21.617188 61.03125 22.023438 61.40625 C 22.433594 61.777344 23.1875 62.003906 24 62 C 27.75 62 31.054688 61.066406 33.5 60.199219 C 34.988281 59.667969 35.292969 59.46875 36 59.132812 C 36.707031 59.46875 37.011719 59.667969 38.5 60.199219 C 40.945312 61.066406 44.25 62 48 62 C 48.8125 62.003906 49.566406 61.777344 49.976562 61.40625 C 50.382812 61.03125 50.382812 60.570312 49.976562 60.195312 C 49.566406 59.820312 48.8125 59.59375 48 59.601562 C 45.75 59.601562 43.054688 58.933594 41 58.203125 C 39.441406 57.648438 38.894531 57.339844 38.425781 57.105469 C 45.671875 39.050781 47.621094 25.339844 46.679688 16.132812 C 46.207031 11.457031 45.03125 7.921875 43.394531 5.449219 C 42.574219 4.214844 41.652344 3.238281 40.5 2.496094 C 39.347656 1.753906 37.800781 1.199219 36 1.199219 Z M 36 3.601562 C 36.074219 3.601562 36.402344 3.617188 37.035156 4.027344 C 37.671875 4.4375 38.449219 5.1875 39.152344 6.25 C 40.5625 8.375 41.730469 11.742188 42.191406 16.265625 C 42.976562 23.960938 40.972656 35.753906 36 50.160156 C 31.027344 35.753906 29.023438 23.960938 29.804688 16.265625 C 30.269531 11.742188 31.4375 8.375 32.847656 6.25 C 33.550781 5.1875 34.328125 4.4375 34.964844 4.027344 C 35.597656 3.617188 35.925781 3.601562 36 3.601562 Z M 36 3.601562 "/>
</g>
</svg>
