<?xml version="1.0" encoding="UTF-8" standalone="no"?>
<svg
   xmlns:dc="http://purl.org/dc/elements/1.1/"
   xmlns:cc="http://creativecommons.org/ns#"
   xmlns:rdf="http://www.w3.org/1999/02/22-rdf-syntax-ns#"
   xmlns:svg="http://www.w3.org/2000/svg"
   xmlns="http://www.w3.org/2000/svg"
   id="svg8"
   version="1.1"
   viewBox="0 0 256 48"
   height="48"
   width="256">
  <defs
     id="defs2" />
  <metadata
     id="metadata5">
    <rdf:RDF>
      <cc:Work
         rdf:about="">
        <dc:format>image/svg+xml</dc:format>
        <dc:type
           rdf:resource="http://purl.org/dc/dcmitype/StillImage" />
        <dc:title></dc:title>
      </cc:Work>
    </rdf:RDF>
  </metadata>
  <g
     transform="translate(0,-296.06665)"
     id="layer1">
    <path
       id="path4579"
       style="fill:none;stroke:#000000;stroke-width:0.5px;stroke-opacity:0"
       d="m 0,295.81665 v 64 m 16,-64 v 64 m 16,-64 v 64 m 16,-64 v 64 m 16,-64 v 64 m 16,-64 v 64 m 16,-64 v 64 m 16,-64 v 64 m 16,-64 v 64 m 16,-64 v 64 m 16,-64 v 64 m 16,-64 v 64 m 16,-64 v 64 m 16,-64 v 64 m 16,-64 v 64 m 16,-64 v 64 m 16,-64 v 64 m -256,-64 h 256 m -256,32 h 256 m -256,32 h 256" />
    <text
       transform="scale(1.0137365,0.98644963)"
       id="text4489"
       y="348.43002"
       x="-1.6642779"
       style="font-style:normal;font-weight:normal;font-size:3.20342207px;line-height:1.25;font-family:sans-serif;letter-spacing:0px;word-spacing:0px;fill:#000000;fill-opacity:1;stroke:none;stroke-width:0.60064161"
       xml:space="preserve"><tspan
         style="font-style:normal;font-variant:normal;font-weight:normal;font-stretch:normal;font-size:25.62737656px;line-height:1;font-family:monospace;-inkscape-font-specification:monospace;letter-spacing:0.60223234px;stroke-width:0.60064161"
         y="348.43002"
         x="-1.6642779"
         id="tspan4487">0123456789ABCDEF</tspan></text>
    <path
       id="path4547"
       d="m 28,298.39236 c 0,0 5.656854,10.34315 0,16 -1.885618,1.88562 -6.114382,1.88562 -8,0 -1.885618,-1.88562 0,-8 0,-8"
       style="fill:none;stroke:#000000;stroke-width:1;stroke-linecap:butt;stroke-linejoin:miter;stroke-miterlimit:4;stroke-dasharray:none;stroke-opacity:1" />
    <path
       id="path4547-4"
       d="m 132,316.06665 c 0,0 -5.65685,-10.34315 0,-16 1.88562,-1.88562 6.11438,-1.88562 8,0 1.88562,1.88562 0,8 0,8"
       style="fill:none;stroke:#000000;stroke-width:1;stroke-linecap:butt;stroke-linejoin:miter;stroke-miterlimit:4;stroke-dasharray:none;stroke-opacity:1" />
    <path
       id="path4547-44"
       d="m 76,316.06665 c 0,0 5.65685,-10.34315 0,-16 -1.88562,-1.88562 -6.11438,-1.88562 -8,0 -1.88562,1.88562 0,8 0,8"
       style="fill:none;stroke:#000000;stroke-width:1;stroke-linecap:butt;stroke-linejoin:miter;stroke-miterlimit:4;stroke-dasharray:none;stroke-opacity:1" />
    <path
       id="path4583"
       d="m 52,298.39236 c 0,0 -3.771236,12.22876 0,16 1.885618,1.88562 6.114382,1.88562 8,0 3.771236,-3.77124 0,-16 0,-16"
       style="fill:none;stroke:#000000;stroke-width:1;stroke-linecap:butt;stroke-linejoin:miter;stroke-miterlimit:4;stroke-dasharray:none;stroke-opacity:1" />
    <path
       id="path4505"
       d="m 84,298.39236 c 0,0 6.114382,-1.88562 8,0 3.771236,3.77124 3.771236,12.22876 0,16 -1.885618,1.88562 -8,0 -8,0"
       style="fill:none;stroke:#000000;stroke-width:1;stroke-linecap:butt;stroke-linejoin:miter;stroke-miterlimit:4;stroke-dasharray:none;stroke-opacity:1" />
    <path
       id="path4513"
       d="m 100,298.39236 c 0,0 11.13485,10.9277 8,16 -1.40195,2.2684 -6.59805,2.2684 -8,0 -3.134855,-5.0723 8,-16 8,-16"
       style="fill:none;stroke:#000000;stroke-width:1;stroke-linecap:butt;stroke-linejoin:miter;stroke-miterlimit:4;stroke-dasharray:none;stroke-opacity:1" />
    <path
       id="path4515"
       d="m 124,298.39236 c 0,0 3.77124,12.22876 0,16 -1.88562,1.88562 -6.11438,1.88562 -8,0 -1.88562,-1.88562 -1.88562,-6.11438 0,-8 1.88562,-1.88562 8,0 8,0"
       style="fill:none;stroke:#000000;stroke-width:1;stroke-linecap:butt;stroke-linejoin:miter;stroke-miterlimit:4;stroke-dasharray:none;stroke-opacity:1" />
    <path
       id="path4515-6"
       d="m 228,316.15923 c 0,0 -3.77124,-12.22876 0,-16 1.88563,-1.88562 6.11438,-1.88562 8,0 1.88563,1.88562 1.88563,6.11438 0,8 -1.88562,1.88562 -8,0 -8,0"
       style="fill:none;stroke:#000000;stroke-width:1;stroke-linecap:butt;stroke-linejoin:miter;stroke-miterlimit:4;stroke-dasharray:none;stroke-opacity:1" />
    <path
       id="path4547-4-7"
       d="m 36,298.39236 c 0,0 -5.65685,10.34315 0,16 1.88562,1.88562 6.11438,1.88562 8,0 1.88562,-1.88562 0,-8 0,-8"
       style="fill:none;stroke:#000000;stroke-width:1;stroke-linecap:butt;stroke-linejoin:miter;stroke-miterlimit:4;stroke-dasharray:none;stroke-opacity:1" />
    <path
       id="path4583-3"
       d="m 196,316.15923 c 0,0 -3.77124,-12.22876 0,-16 1.88562,-1.88562 6.11438,-1.88562 8,0 3.77124,3.77124 0,16 0,16"
       style="fill:none;stroke:#000000;stroke-width:1;stroke-linecap:butt;stroke-linejoin:miter;stroke-miterlimit:4;stroke-dasharray:none;stroke-opacity:1" />
    <path
       id="path4513-5"
       d="m 148,316.2368 c 0,0 11.13485,-10.9277 8,-16 -1.40195,-2.2684 -6.59805,-2.2684 -8,0 -3.13485,5.0723 8,16 8,16"
       style="fill:none;stroke:#000000;stroke-width:1;stroke-linecap:butt;stroke-linejoin:miter;stroke-miterlimit:4;stroke-dasharray:none;stroke-opacity:1" />
    <path
       id="path4515-62"
       d="m 220,316.15923 c 0,0 3.77123,-12.22876 0,-16 -1.88563,-1.88562 -6.11438,-1.88562 -8,0 -1.88563,1.88562 -1.88563,6.11438 0,8 1.88562,1.88562 8,0 8,0"
       style="fill:none;stroke:#000000;stroke-width:1;stroke-linecap:butt;stroke-linejoin:miter;stroke-miterlimit:4;stroke-dasharray:none;stroke-opacity:1" />
    <path
       id="path4515-6-1"
       d="m 180,298.39236 c 0,0 -3.77124,12.22876 0,16 1.88563,1.88562 6.11438,1.88562 8,0 1.88563,-1.88562 1.88563,-6.11438 0,-8 -1.88562,-1.88562 -8,0 -8,0"
       style="fill:none;stroke:#000000;stroke-width:1;stroke-linecap:butt;stroke-linejoin:miter;stroke-miterlimit:4;stroke-dasharray:none;stroke-opacity:1" />
    <path
       id="path4505-7"
       d="m 172,298.39236 c 0,0 -6.11438,-1.88562 -8,0 -3.77124,3.77124 -3.77124,12.22876 0,16 1.88562,1.88562 8,0 8,0"
       style="fill:none;stroke:#000000;stroke-width:1;stroke-linecap:butt;stroke-linejoin:miter;stroke-miterlimit:4;stroke-dasharray:none;stroke-opacity:1" />
    <path
       id="path4678"
       d="m 4,304.06665 c 1.88562,-1.88562 6.11438,-1.88562 8,0 1.88562,1.88562 1.88562,6.11438 0,8 -1.88562,1.88562 -6.11438,1.88562 -8,0 -1.88562,-1.88562 -1.88562,-6.11438 0,-8 z"
       style="fill:none;stroke:#000000;stroke-width:1;stroke-linecap:butt;stroke-linejoin:miter;stroke-miterlimit:4;stroke-dasharray:none;stroke-opacity:1" />
    <path
       id="path4574"
       d="m 244.00002,300.06665 c 1.40194,-2.2684 6.59801,-2.2684 7.99995,0 3.13483,5.0723 -11.13481,8.7264 -7.99997,13.7987 1.40194,2.2684 6.59801,2.2684 7.99995,0 3.13483,-5.0723 -11.13477,-8.7264 -7.99993,-13.7987 z"
       style="fill:none;stroke:#000000;stroke-width:0.99999702px;stroke-linecap:butt;stroke-linejoin:miter;stroke-opacity:1" />
  </g>
</svg>
