<?xml version="1.0" encoding="UTF-8"?>
<svg xmlns="http://www.w3.org/2000/svg" xmlns:xlink="http://www.w3.org/1999/xlink" width="48pt" height="64pt" viewBox="0 0 48 64" version="1.1">
<g id="surface1">
<path style=" stroke:none;fill-rule:nonzero;fill:rgb(0%,0%,0%);fill-opacity:1;" d="M 11.902344 2.019531 C 10.710938 2.046875 9.765625 2.5625 9.75 3.199219 L 9.75 54.398438 C 9.75 55.601562 8.550781 56.941406 6.65625 57.953125 C 4.761719 58.964844 2.25 59.601562 0 59.601562 C -0.8125 59.59375 -1.566406 59.820312 -1.976562 60.195312 C -2.382812 60.570312 -2.382812 61.03125 -1.976562 61.40625 C -1.566406 61.777344 -0.8125 62.003906 0 62 C 3.75 62 7.238281 61.039062 9.84375 59.648438 C 10.726562 59.179688 11.339844 58.589844 12 58.023438 C 12.660156 58.589844 13.273438 59.179688 14.15625 59.648438 C 16.761719 61.039062 20.25 62 24 62 C 24.8125 62.003906 25.566406 61.777344 25.976562 61.40625 C 26.382812 61.03125 26.382812 60.570312 25.976562 60.195312 C 25.566406 59.820312 24.8125 59.59375 24 59.601562 C 21.75 59.601562 19.238281 58.964844 17.34375 57.953125 C 15.449219 56.941406 14.25 55.601562 14.25 54.398438 L 14.25 3.199219 C 14.242188 2.875 13.984375 2.566406 13.542969 2.34375 C 13.101562 2.121094 12.507812 2.003906 11.902344 2.019531 Z M 11.902344 2.019531 "/>
<path style=" stroke:none;fill-rule:nonzero;fill:rgb(0%,0%,0%);fill-opacity:1;" d="M 35.902344 2.019531 C 34.710938 2.046875 33.765625 2.5625 33.75 3.199219 L 33.75 54.398438 C 33.75 55.601562 32.550781 56.941406 30.65625 57.953125 C 28.761719 58.964844 26.25 59.601562 24 59.601562 C 23.1875 59.59375 22.433594 59.820312 22.023438 60.195312 C 21.617188 60.570312 21.617188 61.03125 22.023438 61.40625 C 22.433594 61.777344 23.1875 62.003906 24 62 C 27.75 62 31.238281 61.039062 33.84375 59.648438 C 34.726562 59.179688 35.339844 58.589844 36 58.023438 C 36.660156 58.589844 37.273438 59.179688 38.15625 59.648438 C 40.761719 61.039062 44.25 62 48 62 C 48.8125 62.003906 49.566406 61.777344 49.976562 61.40625 C 50.382812 61.03125 50.382812 60.570312 49.976562 60.195312 C 49.566406 59.820312 48.8125 59.59375 48 59.601562 C 45.75 59.601562 43.238281 58.964844 41.34375 57.953125 C 39.449219 56.941406 38.25 55.601562 38.25 54.398438 L 38.25 3.199219 C 38.242188 2.875 37.984375 2.566406 37.542969 2.34375 C 37.101562 2.121094 36.507812 2.003906 35.902344 2.019531 Z M 35.902344 2.019531 "/>
</g>
</svg>
