<?xml version="1.0" encoding="UTF-8"?>
<svg xmlns="http://www.w3.org/2000/svg" xmlns:xlink="http://www.w3.org/1999/xlink" width="48pt" height="64pt" viewBox="0 0 48 64" version="1.1">
<g id="surface1">
<path style=" stroke:none;fill-rule:nonzero;fill:rgb(0%,0%,0%);fill-opacity:1;" d="M 35.9375 30.820312 C 34.742188 30.84375 33.796875 31.363281 33.78125 32 L 33.78125 54.398438 C 33.78125 55.601562 32.585938 56.941406 30.691406 57.953125 C 28.796875 58.964844 26.28125 59.601562 24.027344 59.601562 C 23.21875 59.59375 22.464844 59.820312 22.054688 60.195312 C 21.644531 60.570312 21.644531 61.03125 22.054688 61.40625 C 22.464844 61.777344 23.21875 62.003906 24.027344 62 C 27.78125 62 31.269531 61.039062 33.875 59.648438 C 34.757812 59.179688 35.375 58.589844 36.035156 58.023438 C 36.695312 58.589844 37.308594 59.179688 38.191406 59.648438 C 40.796875 61.039062 44.28125 62 48.03125 62 C 48.839844 62.003906 49.59375 61.777344 50.003906 61.40625 C 50.414062 61.03125 50.414062 60.570312 50.003906 60.195312 C 49.59375 59.820312 48.839844 59.59375 48.03125 59.601562 C 45.78125 59.601562 43.269531 58.964844 41.375 57.953125 C 39.476562 56.941406 38.28125 55.601562 38.28125 54.398438 L 38.28125 32 C 38.269531 31.675781 38.015625 31.367188 37.574219 31.144531 C 37.132812 30.921875 36.542969 30.804688 35.9375 30.820312 Z M 35.9375 30.820312 "/>
<path style=" stroke:none;fill-rule:nonzero;fill:rgb(0%,0%,0%);fill-opacity:1;" d="M 12 30 C 9.300781 30 6.75 30.8125 4.917969 32.136719 C 3.082031 33.460938 1.828125 35.308594 1.324219 37.664062 C 0.359375 42.195312 2.453125 48.757812 9.371094 57.195312 C 8.839844 57.453125 8.433594 57.695312 7.003906 58.203125 C 4.945312 58.933594 2.25 59.601562 0 59.601562 C -0.8125 59.59375 -1.566406 59.820312 -1.976562 60.195312 C -2.382812 60.570312 -2.382812 61.03125 -1.976562 61.40625 C -1.566406 61.777344 -0.8125 62.003906 0 62 C 3.75 62 7.054688 61.066406 9.5 60.199219 C 10.988281 59.667969 11.292969 59.46875 12 59.132812 C 12.707031 59.46875 13.011719 59.667969 14.503906 60.199219 C 16.945312 61.066406 20.25 62 24 62 C 24.8125 62.003906 25.566406 61.777344 25.976562 61.40625 C 26.382812 61.03125 26.382812 60.570312 25.976562 60.195312 C 25.566406 59.820312 24.8125 59.59375 24 59.601562 C 21.75 59.601562 19.054688 58.933594 17 58.203125 C 15.566406 57.695312 15.160156 57.453125 14.632812 57.195312 C 21.546875 48.757812 23.640625 42.195312 22.675781 37.664062 C 22.171875 35.308594 20.917969 33.460938 19.085938 32.136719 C 17.25 30.8125 14.699219 30 12 30 Z M 12 32.398438 C 13.050781 32.398438 14.25 32.6875 15.464844 33.5625 C 16.675781 34.4375 17.765625 35.890625 18.199219 37.933594 C 18.945312 41.441406 17.011719 47.011719 12 53.898438 C 6.988281 47.011719 5.054688 41.441406 5.800781 37.933594 C 6.234375 35.890625 7.324219 34.4375 8.539062 33.5625 C 9.75 32.6875 10.949219 32.398438 12 32.398438 Z M 12 32.398438 "/>
</g>
</svg>
