<?xml version="1.0" encoding="UTF-8"?>
<svg xmlns="http://www.w3.org/2000/svg" xmlns:xlink="http://www.w3.org/1999/xlink" width="48pt" height="64pt" viewBox="0 0 48 64" version="1.1">
<g id="surface1">
<path style=" stroke:none;fill-rule:nonzero;fill:rgb(0%,0%,0%);fill-opacity:1;" d="M 12 30 C 9.300781 30 6.75 30.8125 4.917969 32.136719 C 3.082031 33.460938 1.828125 35.308594 1.324219 37.664062 C 0.359375 42.195312 2.453125 48.757812 9.371094 57.195312 C 8.839844 57.453125 8.433594 57.695312 7.003906 58.203125 C 4.945312 58.933594 2.25 59.601562 0 59.601562 C -0.8125 59.59375 -1.566406 59.820312 -1.976562 60.195312 C -2.382812 60.570312 -2.382812 61.03125 -1.976562 61.40625 C -1.566406 61.777344 -0.8125 62.003906 0 62 C 3.75 62 7.054688 61.066406 9.5 60.199219 C 10.988281 59.667969 11.292969 59.46875 12 59.132812 C 12.707031 59.46875 13.011719 59.667969 14.503906 60.199219 C 16.945312 61.066406 20.25 62 24 62 C 24.8125 62.003906 25.566406 61.777344 25.976562 61.40625 C 26.382812 61.03125 26.382812 60.570312 25.976562 60.195312 C 25.566406 59.820312 24.8125 59.59375 24 59.601562 C 21.75 59.601562 19.054688 58.933594 17 58.203125 C 15.566406 57.695312 15.160156 57.453125 14.632812 57.195312 C 21.546875 48.757812 23.640625 42.195312 22.675781 37.664062 C 22.171875 35.308594 20.917969 33.460938 19.085938 32.136719 C 17.25 30.8125 14.699219 30 12 30 Z M 12 32.398438 C 13.050781 32.398438 14.25 32.6875 15.464844 33.5625 C 16.675781 34.4375 17.765625 35.890625 18.199219 37.933594 C 18.945312 41.441406 17.011719 47.011719 12 53.898438 C 6.988281 47.011719 5.054688 41.441406 5.800781 37.933594 C 6.234375 35.890625 7.324219 34.4375 8.539062 33.5625 C 9.75 32.6875 10.949219 32.398438 12 32.398438 Z M 12 32.398438 "/>
<path style=" stroke:none;fill-rule:nonzero;fill:rgb(0%,0%,0%);fill-opacity:1;" d="M 35.902344 2.019531 C 34.710938 2.046875 33.765625 2.5625 33.75 3.199219 L 33.75 54.398438 C 33.75 55.601562 32.550781 56.941406 30.65625 57.953125 C 28.761719 58.964844 26.25 59.601562 24 59.601562 C 23.1875 59.59375 22.433594 59.820312 22.023438 60.195312 C 21.617188 60.570312 21.617188 61.03125 22.023438 61.40625 C 22.433594 61.777344 23.1875 62.003906 24 62 C 27.75 62 31.238281 61.039062 33.84375 59.648438 C 34.726562 59.179688 35.339844 58.589844 36 58.023438 C 36.660156 58.589844 37.273438 59.179688 38.15625 59.648438 C 40.761719 61.039062 44.25 62 48 62 C 48.8125 62.003906 49.566406 61.777344 49.976562 61.40625 C 50.382812 61.03125 50.382812 60.570312 49.976562 60.195312 C 49.566406 59.820312 48.8125 59.59375 48 59.601562 C 45.75 59.601562 43.238281 58.964844 41.34375 57.953125 C 39.449219 56.941406 38.25 55.601562 38.25 54.398438 L 38.25 3.199219 C 38.242188 2.875 37.984375 2.566406 37.542969 2.34375 C 37.101562 2.121094 36.507812 2.003906 35.902344 2.019531 Z M 35.902344 2.019531 "/>
</g>
</svg>
