<?xml version="1.0" encoding="UTF-8" standalone="no"?>
<!-- Created with Inkscape (http://www.inkscape.org/) -->

<svg
   xmlns:dc="http://purl.org/dc/elements/1.1/"
   xmlns:cc="http://creativecommons.org/ns#"
   xmlns:rdf="http://www.w3.org/1999/02/22-rdf-syntax-ns#"
   xmlns:svg="http://www.w3.org/2000/svg"
   xmlns="http://www.w3.org/2000/svg"
   xmlns:sodipodi="http://sodipodi.sourceforge.net/DTD/sodipodi-0.dtd"
   xmlns:inkscape="http://www.inkscape.org/namespaces/inkscape"
   width="128"
   height="256"
   viewBox="0 0 8 16.000001"
   version="1.1"
   id="svg5540"
   inkscape:version="0.92.3 (2405546, 2018-03-11)"
   sodipodi:docname="0.svg">
  <defs
     id="defs5534" />
  <sodipodi:namedview
     id="base"
     pagecolor="#ffffff"
     bordercolor="#666666"
     borderopacity="1.0"
     inkscape:pageopacity="0.0"
     inkscape:pageshadow="2"
     inkscape:zoom="1.979899"
     inkscape:cx="119.30701"
     inkscape:cy="126.4362"
     inkscape:document-units="px"
     inkscape:current-layer="layer1"
     showgrid="true"
     units="px"
     inkscape:window-width="1920"
     inkscape:window-height="1053"
     inkscape:window-x="0"
     inkscape:window-y="27"
     inkscape:window-maximized="1"
     showguides="false">
    <inkscape:grid
       type="xygrid"
       id="grid6085"
       units="px"
       spacingx="0.50000002"
       spacingy="0.50000002" />
    <sodipodi:guide
       position="-23,11"
       orientation="1,0"
       id="guide6118"
       inkscape:locked="false" />
    <inkscape:grid
       type="xygrid"
       id="grid6209"
       spacingx="8.0000003"
       spacingy="15.937501"
       color="#ff0000"
       opacity="0.1254902"
       empcolor="#ff0000"
       empopacity="0.25098039" />
  </sodipodi:namedview>
  <metadata
     id="metadata5537">
    <rdf:RDF>
      <cc:Work
         rdf:about="">
        <dc:format>image/svg+xml</dc:format>
        <dc:type
           rdf:resource="http://purl.org/dc/dcmitype/StillImage" />
        <dc:title></dc:title>
      </cc:Work>
    </rdf:RDF>
  </metadata>
  <g
     inkscape:label="Layer 1"
     inkscape:groupmode="layer"
     id="layer1"
     transform="translate(0,-277.76666)">
    <path
       style="color:#000000;font-style:normal;font-variant:normal;font-weight:normal;font-stretch:normal;font-size:medium;line-height:normal;font-family:sans-serif;font-variant-ligatures:normal;font-variant-position:normal;font-variant-caps:normal;font-variant-numeric:normal;font-variant-alternates:normal;font-feature-settings:normal;text-indent:0;text-align:start;text-decoration:none;text-decoration-line:none;text-decoration-style:solid;text-decoration-color:#000000;letter-spacing:normal;word-spacing:normal;text-transform:none;writing-mode:lr-tb;direction:ltr;text-orientation:mixed;dominant-baseline:auto;baseline-shift:baseline;text-anchor:start;white-space:normal;shape-padding:0;clip-rule:nonzero;display:inline;overflow:visible;visibility:visible;opacity:1;isolation:auto;mix-blend-mode:normal;color-interpolation:sRGB;color-interpolation-filters:linearRGB;solid-color:#000000;solid-opacity:1;vector-effect:none;fill:#000000;fill-opacity:1;fill-rule:nonzero;stroke:none;stroke-width:1;stroke-linecap:butt;stroke-linejoin:miter;stroke-miterlimit:4;stroke-dasharray:none;stroke-dashoffset:0;stroke-opacity:1;color-rendering:auto;image-rendering:auto;shape-rendering:auto;text-rendering:auto;enable-background:accumulate"
       d="m 4.0000001,278.26666 c -0.645833,0 -1.225514,0.29633 -1.669922,0.75 -0.444407,0.45366 -0.780426,1.05838 -1.046875,1.75781 -0.53289698,1.39886 -0.78320298,3.19457 -0.78320298,4.99219 0,1.79762 0.250305,3.59138 0.78320298,4.99023 0.266449,0.69943 0.602467,1.30415 1.046875,1.75781 0.444409,0.45367 1.024089,0.75196 1.669922,0.75196 0.645833,0 1.225515,-0.29829 1.669922,-0.75196 0.444408,-0.45366 0.780427,-1.05838 1.046875,-1.75781 0.532897,-1.39885 0.783203,-3.19261 0.783203,-4.99023 0,-1.79762 -0.250305,-3.59333 -0.783203,-4.99219 -0.266448,-0.69943 -0.602467,-1.30415 -1.046875,-1.75781 -0.444408,-0.45367 -1.024088,-0.75 -1.669922,-0.75 z m 0,1 c 0.354167,0 0.649486,0.13921 0.955078,0.45117 0.305593,0.31196 0.594574,0.80099 0.828125,1.41406 0.467103,1.22615 0.716797,2.93239 0.716797,4.63477 1e-6,1.70238 -0.249694,3.40667 -0.716797,4.63281 -0.233551,0.61307 -0.522533,1.1021 -0.828125,1.41406 -0.305591,0.31196 -0.600912,0.45313 -0.955078,0.45313 -0.354167,0 -0.649485,-0.14117 -0.955078,-0.45313 -0.305592,-0.31196 -0.594573,-0.80099 -0.828125,-1.41406 -0.467103,-1.22614 -0.716797,-2.93043 -0.716797,-4.63281 0,-1.70238 0.249694,-3.40862 0.716797,-4.63477 0.233551,-0.61307 0.522533,-1.1021 0.828125,-1.41406 0.305592,-0.31196 0.600912,-0.45117 0.955078,-0.45117 z"
       id="path6173-6-7-6-2"
       inkscape:connector-curvature="0" />
  </g>
</svg>
