<?xml version="1.0" encoding="UTF-8" standalone="no"?>
<!-- Created with Inkscape (http://www.inkscape.org/) -->

<svg
   xmlns:dc="http://purl.org/dc/elements/1.1/"
   xmlns:cc="http://creativecommons.org/ns#"
   xmlns:rdf="http://www.w3.org/1999/02/22-rdf-syntax-ns#"
   xmlns:svg="http://www.w3.org/2000/svg"
   xmlns="http://www.w3.org/2000/svg"
   xmlns:sodipodi="http://sodipodi.sourceforge.net/DTD/sodipodi-0.dtd"
   xmlns:inkscape="http://www.inkscape.org/namespaces/inkscape"
   width="128"
   height="256"
   viewBox="0 0 8 16.000001"
   version="1.1"
   id="svg5540"
   inkscape:version="0.92.3 (2405546, 2018-03-11)"
   sodipodi:docname="F.svg">
  <defs
     id="defs5534" />
  <sodipodi:namedview
     id="base"
     pagecolor="#ffffff"
     bordercolor="#666666"
     borderopacity="1.0"
     inkscape:pageopacity="0.0"
     inkscape:pageshadow="2"
     inkscape:zoom="1.979899"
     inkscape:cx="119.30701"
     inkscape:cy="126.4362"
     inkscape:document-units="px"
     inkscape:current-layer="layer1"
     showgrid="true"
     units="px"
     inkscape:window-width="1920"
     inkscape:window-height="1053"
     inkscape:window-x="0"
     inkscape:window-y="27"
     inkscape:window-maximized="1"
     showguides="false">
    <inkscape:grid
       type="xygrid"
       id="grid6085"
       units="px"
       spacingx="0.50000002"
       spacingy="0.50000002" />
    <sodipodi:guide
       position="-23,11"
       orientation="1,0"
       id="guide6118"
       inkscape:locked="false" />
    <inkscape:grid
       type="xygrid"
       id="grid6209"
       spacingx="8.0000003"
       spacingy="15.937501"
       color="#ff0000"
       opacity="0.1254902"
       empcolor="#ff0000"
       empopacity="0.25098039" />
  </sodipodi:namedview>
  <metadata
     id="metadata5537">
    <rdf:RDF>
      <cc:Work
         rdf:about="">
        <dc:format>image/svg+xml</dc:format>
        <dc:type
           rdf:resource="http://purl.org/dc/dcmitype/StillImage" />
        <dc:title></dc:title>
      </cc:Work>
    </rdf:RDF>
  </metadata>
  <g
     inkscape:label="Layer 1"
     inkscape:groupmode="layer"
     id="layer1"
     transform="translate(0,-277.76666)">
    <path
       style="color:#000000;font-style:normal;font-variant:normal;font-weight:normal;font-stretch:normal;font-size:medium;line-height:normal;font-family:sans-serif;font-variant-ligatures:normal;font-variant-position:normal;font-variant-caps:normal;font-variant-numeric:normal;font-variant-alternates:normal;font-feature-settings:normal;text-indent:0;text-align:start;text-decoration:none;text-decoration-line:none;text-decoration-style:solid;text-decoration-color:#000000;letter-spacing:normal;word-spacing:normal;text-transform:none;writing-mode:lr-tb;direction:ltr;text-orientation:mixed;dominant-baseline:auto;baseline-shift:baseline;text-anchor:start;white-space:normal;shape-padding:0;clip-rule:nonzero;display:inline;overflow:visible;visibility:visible;opacity:1;isolation:auto;mix-blend-mode:normal;color-interpolation:sRGB;color-interpolation-filters:linearRGB;solid-color:#000000;solid-opacity:1;vector-effect:none;fill:#000000;fill-opacity:1;fill-rule:nonzero;stroke:none;stroke-width:1;stroke-linecap:butt;stroke-linejoin:miter;stroke-miterlimit:4;stroke-dasharray:none;stroke-dashoffset:0;stroke-opacity:1;color-rendering:auto;image-rendering:auto;shape-rendering:auto;text-rendering:auto;enable-background:accumulate"
       d="m 0.50000007,278.26666 v 0.5 c 0,3.53571 0.34575,5.34947 1.01758003,6.39453 0.20858,0.32446 0.49712,0.43268 0.7656201,0.60351 -0.2688801,0.17087 -0.5567801,0.28061 -0.7656201,0.60547 -0.67183003,1.04506 -1.01758003,2.86077 -1.01758003,6.39649 v 0.5 H 7.5000002 v -0.5 c 0,-3.53572 -0.34575,-5.35143 -1.01758,-6.39649 -0.20884,-0.32486 -0.49674,-0.4346 -0.76562,-0.60547 0.2685,-0.17083 0.55704,-0.27905 0.76562,-0.60351 0.67183,-1.04506 1.01758,-2.85882 1.01758,-6.39453 v -0.5 h -0.5 z m 1.03320003,1 h 4.9336001 c -0.0466,3.03821 -0.39965,4.69307 -0.82422,5.35351 -0.2265899,0.35247 -0.43419,0.47918 -0.68946,0.5586 -0.25526,0.0794 -0.57812,0.0879 -0.95312,0.0879 -0.375,0 -0.69786,-0.008 -0.95312,-0.0879 -0.25527,-0.0794 -0.46287,-0.20613 -0.68946,-0.5586 -0.4245701,-0.66044 -0.7776601,-2.3153 -0.8242201,-5.35351 z m 2.4668001,7 c 0.375,0 0.69786,0.007 0.95312,0.0859 0.25527,0.0794 0.4628701,0.20612 0.68946,0.55859 0.42459,0.66047 0.77768,2.31706 0.82422,5.35547 H 1.5332001 c 0.0465,-3.03841 0.39963,-4.695 0.8242201,-5.35547 0.22659,-0.35247 0.43419,-0.47918 0.68946,-0.55859 0.25526,-0.0794 0.57812,-0.0859 0.95312,-0.0859 z"
       id="path6475"
       inkscape:connector-curvature="0" />
  </g>
</svg>
