<?xml version="1.0" encoding="UTF-8" standalone="no"?>
<svg
   xmlns:dc="http://purl.org/dc/elements/1.1/"
   xmlns:cc="http://creativecommons.org/ns#"
   xmlns:rdf="http://www.w3.org/1999/02/22-rdf-syntax-ns#"
   xmlns:svg="http://www.w3.org/2000/svg"
   xmlns="http://www.w3.org/2000/svg"
   xmlns:sodipodi="http://sodipodi.sourceforge.net/DTD/sodipodi-0.dtd"
   xmlns:inkscape="http://www.inkscape.org/namespaces/inkscape"
   id="svg8"
   version="1.1"
   viewBox="0 0 192 28"
   height="28"
   width="192"
   sodipodi:docname="combine_script.svg"
   inkscape:version="0.92.2 (5c3e80d, 2017-08-06)">
  <sodipodi:namedview
     pagecolor="#ffffff"
     bordercolor="#000000"
     borderopacity="1"
     objecttolerance="10"
     gridtolerance="10"
     guidetolerance="10"
     inkscape:pageopacity="0"
     inkscape:pageshadow="2"
     inkscape:window-width="1920"
     inkscape:window-height="1053"
     id="namedview25"
     showgrid="true"
     inkscape:zoom="5.6568543"
     inkscape:cx="117.26578"
     inkscape:cy="-9.9837432"
     inkscape:window-x="0"
     inkscape:window-y="795"
     inkscape:window-maximized="1"
     inkscape:current-layer="svg8">
    <inkscape:grid
       type="xygrid"
       id="grid27"
       spacingx="2"
       spacingy="2"
       color="#3f3fff"
       opacity="0.0627451"
       empcolor="#3f3fff"
       empopacity="0.1254902" />
    <inkscape:grid
       type="xygrid"
       id="grid29"
       spacingx="12"
       spacingy="28"
       color="#000000"
       opacity="0.50196078"
       empcolor="#000000"
       empopacity="0.50196078"
       empspacing="1"
       originx="0"
       originy="0" />
  </sodipodi:namedview>
  <defs
     id="defs2" />
  <metadata
     id="metadata5">
    <rdf:RDF>
      <cc:Work
         rdf:about="">
        <dc:format>image/svg+xml</dc:format>
        <dc:type
           rdf:resource="http://purl.org/dc/dcmitype/StillImage" />
        <dc:title></dc:title>
      </cc:Work>
    </rdf:RDF>
  </metadata>
  <path
     inkscape:connector-curvature="0"
     d="m 0,15.75 v 64 m 16,-64 v 64 m 16,-64 v 64 m 16,-64 v 64 m 16,-64 v 64 m 16,-64 v 64 m 16,-64 v 64 m 16,-64 v 64 m 16,-64 v 64 m 16,-64 v 64 m 16,-64 v 64 m 16,-64 v 64 m 16,-64 v 64 m 16,-64 v 64 m 16,-64 v 64 m 16,-64 v 64 m 16,-64 v 64 M 0,15.75 h 256 m -256,32 h 256 m -256,32 h 256"
     style="fill:none;stroke:#000000;stroke-width:0.5px;stroke-opacity:0"
     id="path4579" />
  <path
     style="fill:none;stroke:#000000;stroke-width:1px;stroke-linecap:butt;stroke-linejoin:miter;stroke-opacity:1"
     d="m 22,6 v 16 c 0,6 -8,6 -8,0"
     id="path54"
     inkscape:connector-curvature="0"
     sodipodi:nodetypes="ccc" />
  <path
     style="fill:none;stroke:#000000;stroke-width:1px;stroke-linecap:butt;stroke-linejoin:miter;stroke-opacity:1"
     d="m 26,6 v 16 c 0,6 8,6 8,0"
     id="path54-62"
     inkscape:connector-curvature="0"
     sodipodi:nodetypes="ccc" />
  <path
     style="fill:none;stroke:#000000;stroke-width:1px;stroke-linecap:butt;stroke-linejoin:miter;stroke-opacity:1"
     d="M 58,22 V 6 C 58,0 50,0 50,6"
     id="path54-2"
     inkscape:connector-curvature="0"
     sodipodi:nodetypes="ccc" />
  <path
     style="fill:none;stroke:#000000;stroke-width:1px;stroke-linecap:butt;stroke-linejoin:miter;stroke-opacity:1"
     d="m 62,6 c 0,-6 8,-6 8,0 v 16 c 0,6 -8,6 -8,0"
     id="path54-2-9"
     inkscape:connector-curvature="0"
     sodipodi:nodetypes="ccsc" />
  <path
     style="fill:none;stroke:#000000;stroke-width:1px;stroke-linecap:butt;stroke-linejoin:miter;stroke-opacity:1"
     d="M 74,22 V 6 12 c 0,6 8,6 8,0 V 6"
     id="path372"
     inkscape:connector-curvature="0"
     sodipodi:nodetypes="csssc" />
  <path
     style="fill:none;stroke:#000000;stroke-width:1px;stroke-linecap:butt;stroke-linejoin:miter;stroke-opacity:1"
     d="m 94,6 v 16 c 0,6 -8,6 -8,0 0,-6 8,-6 8,0"
     id="path391"
     inkscape:connector-curvature="0"
     sodipodi:nodetypes="cccc" />
  <path
     style="fill:none;stroke:#000000;stroke-width:1px;stroke-linecap:butt;stroke-linejoin:miter;stroke-opacity:1"
     d="M 98,22 V 6 c 0,-6 8,-6 8,0"
     id="path54-2-0"
     inkscape:connector-curvature="0"
     sodipodi:nodetypes="ccc" />
  <path
     style="fill:none;stroke:#000000;stroke-width:1px;stroke-linecap:butt;stroke-linejoin:miter;stroke-opacity:1"
     d="m 38,6 v 16 c 0,6 8,6 8,0 V 6"
     id="path54-62-1-3"
     inkscape:connector-curvature="0"
     sodipodi:nodetypes="cccc" />
  <path
     style="fill:none;stroke:#000000;stroke-width:1px;stroke-linecap:butt;stroke-linejoin:miter;stroke-opacity:1"
     d="m 110,6 v 16 -6 c 0,-6 8,-6 8,0 v 6"
     id="path372-9"
     inkscape:connector-curvature="0"
     sodipodi:nodetypes="csssc" />
  <path
     style="fill:none;stroke:#000000;stroke-width:1px;stroke-linecap:butt;stroke-linejoin:miter;stroke-opacity:1"
     d="m 130,6 c 0,-6 -8,-6 -8,0 v 16 c 0,6 8,6 8,0"
     id="path54-2-9-7"
     inkscape:connector-curvature="0"
     sodipodi:nodetypes="ccsc" />
  <path
     style="fill:none;stroke:#000000;stroke-width:1px;stroke-linecap:butt;stroke-linejoin:miter;stroke-opacity:1"
     d="m 134,6 v 16 c 0,6 8,6 8,0 0,-6 -8,-6 -8,0"
     id="path391-4"
     inkscape:connector-curvature="0"
     sodipodi:nodetypes="cccc" />
  <path
     style="fill:none;stroke:#000000;stroke-width:1px;stroke-linecap:butt;stroke-linejoin:miter;stroke-opacity:1"
     d="M 154,22 V 6 c 0,-6 -8,-6 -8,0 v 16"
     id="path54-62-1-0"
     inkscape:connector-curvature="0"
     sodipodi:nodetypes="cccc" />
  <path
     style="fill:none;stroke:#000000;stroke-width:1px;stroke-linecap:butt;stroke-linejoin:miter;stroke-opacity:1"
     d="M 166,22 V 6 c 0,-6 -8,-6 -8,0 0,6 8,6 8,0"
     id="path391-4-5-1"
     inkscape:connector-curvature="0"
     sodipodi:nodetypes="cccc" />
  <path
     style="fill:none;stroke:#000000;stroke-width:1px;stroke-linecap:butt;stroke-linejoin:miter;stroke-opacity:1"
     d="M 170,22 V 6 c 0,-6 8,-6 8,0 0,6 -8,6 -8,0"
     id="path391-9-6"
     inkscape:connector-curvature="0"
     sodipodi:nodetypes="cccc" />
  <path
     style="fill:none;stroke:#000000;stroke-width:1px;stroke-linecap:butt;stroke-linejoin:miter;stroke-opacity:1"
     d="M 190,22 V 6 c 0,-6 -8,-6 -8,0 v 16 c 0,6 8,6 8,0 z"
     id="path54-62-1-0-1"
     inkscape:connector-curvature="0"
     sodipodi:nodetypes="sccss" />
  <path
     style="color:#000000;font-style:normal;font-variant:normal;font-weight:normal;font-stretch:normal;font-size:medium;line-height:normal;font-family:sans-serif;font-variant-ligatures:normal;font-variant-position:normal;font-variant-caps:normal;font-variant-numeric:normal;font-variant-alternates:normal;font-feature-settings:normal;text-indent:0;text-align:start;text-decoration:none;text-decoration-line:none;text-decoration-style:solid;text-decoration-color:#000000;letter-spacing:normal;word-spacing:normal;text-transform:none;writing-mode:lr-tb;direction:ltr;text-orientation:mixed;dominant-baseline:auto;baseline-shift:baseline;text-anchor:start;white-space:normal;shape-padding:0;clip-rule:nonzero;display:inline;overflow:visible;visibility:visible;opacity:1;isolation:auto;mix-blend-mode:normal;color-interpolation:sRGB;color-interpolation-filters:linearRGB;solid-color:#000000;solid-opacity:1;vector-effect:none;fill:#000000;fill-opacity:1;fill-rule:nonzero;stroke:none;stroke-width:1px;stroke-linecap:butt;stroke-linejoin:miter;stroke-miterlimit:4;stroke-dasharray:none;stroke-dashoffset:0;stroke-opacity:1;color-rendering:auto;image-rendering:auto;shape-rendering:auto;text-rendering:auto;enable-background:accumulate"
     d="m 198,29 c -2.25,0 -4.5,1.77778 -4.5,5 0,3.22222 2.25,5 4.5,5 2.25,0 4.5,-1.77778 4.5,-5 0,-3.22222 -2.25,-5 -4.5,-5 z m 0,1 c 1.75,0 3.5,1.22222 3.5,4 0,2.77778 -1.75,4 -3.5,4 -1.75,0 -0.97462,-1.12752 -0.97462,-3.9053 C 197.02538,31.31692 196.25,30 198,30 Z"
     id="path389-3"
     inkscape:connector-curvature="0"
     sodipodi:nodetypes="ssssssssss" />
  <path
     style="fill:none;stroke:#000000;stroke-width:1px;stroke-linecap:butt;stroke-linejoin:miter;stroke-opacity:1"
     d="M 6,22 V 6"
     id="path1510"
     inkscape:connector-curvature="0" />
</svg>
